<?xml version="1.0" encoding="utf-8"?>
<!-- Generator: Adobe Illustrator 18.0.0, SVG Export Plug-In . SVG Version: 6.00 Build 0)  -->
<!DOCTYPE svg PUBLIC "-//W3C//DTD SVG 1.1//EN" "http://www.w3.org/Graphics/SVG/1.1/DTD/svg11.dtd">
<svg version="1.1" id="Layer_1" xmlns="http://www.w3.org/2000/svg" xmlns:xlink="http://www.w3.org/1999/xlink" x="0px" y="0px"
	 viewBox="0 0 150 150" enable-background="new 0 0 150 150" xml:space="preserve">
<g>
	<path d="M127.2,120.9H22.8c-3.3,0-6-2.7-6-6V48.8c0-3.3,2.7-6,6-6h104.3c3.3,0,6,2.7,6,6v66.1C133.2,118.2,130.5,120.9,127.2,120.9
		z"/>
	<circle fill="#FFFFFF" cx="75" cy="81.8" r="13.3"/>
	<rect x="39.5" y="29.1" width="27.3" height="15.2"/>
	<path d="M113.9,45.4h-11.4c-0.5,0-1-0.4-1-1v-2.8c0-0.5,0.4-1,1-1h11.4c0.5,0,1,0.4,1,1v2.8C114.8,45,114.4,45.4,113.9,45.4z"/>
	<path fill="#FFFFFF" d="M58.7,48.8H47.3c-1.8,0-3.3-1.5-3.3-3.3v-9.7c0-1.8,1.5-3.3,3.3-3.3h11.4c1.8,0,3.3,1.5,3.3,3.3v9.7
		C62,47.4,60.5,48.8,58.7,48.8z"/>
	<rect x="38.4" y="60.6" fill="none" stroke="#FFFFFF" stroke-width="2" stroke-miterlimit="10" width="73.3" height="42.4"/>
</g>
</svg>
