<?xml version="1.0" encoding="utf-8"?>
<!-- Generator: Adobe Illustrator 19.2.1, SVG Export Plug-In . SVG Version: 6.00 Build 0)  -->
<!DOCTYPE svg PUBLIC "-//W3C//DTD SVG 1.1//EN" "http://www.w3.org/Graphics/SVG/1.1/DTD/svg11.dtd">
<svg version="1.1"
	 id="svg4260" inkscape:version="0.47 r22583" sodipodi:docname="Nuevo documento 8" xmlns:cc="http://creativecommons.org/ns#" xmlns:dc="http://purl.org/dc/elements/1.1/" xmlns:inkscape="http://www.inkscape.org/namespaces/inkscape" xmlns:rdf="http://www.w3.org/1999/02/22-rdf-syntax-ns#" xmlns:sodipodi="http://sodipodi.sourceforge.net/DTD/sodipodi-0.dtd" xmlns:svg="http://www.w3.org/2000/svg"
	 xmlns="http://www.w3.org/2000/svg" xmlns:xlink="http://www.w3.org/1999/xlink" x="0px" y="0px" viewBox="0 0 300 341.1"
	 style="enable-background:new 0 0 300 341.1;" xml:space="preserve">
<style type="text/css">
	.st0{fill:#005390;}
	.st1{fill:#E7F4FD;}
</style>
<defs>
	
	
		<inkscape:perspective  id="perspective4268" inkscape:persp3d-origin="372.04724 : 350.78739 : 1" inkscape:vp_x="0 : 526.18109 : 1" inkscape:vp_y="0 : 1000 : 0" inkscape:vp_z="744.09448 : 526.18109 : 1" sodipodi:type="inkscape:persp3d">
		</inkscape:perspective>
	
		<inkscape:perspective  id="perspective4784" inkscape:persp3d-origin="0.5 : 0.33333333 : 1" inkscape:vp_x="0 : 0.5 : 1" inkscape:vp_y="0 : 1000 : 0" inkscape:vp_z="1 : 0.5 : 1" sodipodi:type="inkscape:persp3d">
		</inkscape:perspective>
	
		<inkscape:perspective  id="perspective5210" inkscape:persp3d-origin="0.5 : 0.33333333 : 1" inkscape:vp_x="0 : 0.5 : 1" inkscape:vp_y="0 : 1000 : 0" inkscape:vp_z="1 : 0.5 : 1" sodipodi:type="inkscape:persp3d">
		</inkscape:perspective>
</defs>
<sodipodi:namedview  bordercolor="#666666" borderopacity="1.0" id="base" inkscape:current-layer="layer1" inkscape:cx="174.3152" inkscape:cy="124.89972" inkscape:document-units="px" inkscape:pageopacity="0.0" inkscape:pageshadow="2" inkscape:window-height="950" inkscape:window-maximized="1" inkscape:window-width="1280" inkscape:window-x="0" inkscape:window-y="24" inkscape:zoom="1" pagecolor="#ffffff" showgrid="false">
	</sodipodi:namedview>
<g id="layer1" transform="translate(-175.6848,-154.49066)" inkscape:groupmode="layer" inkscape:label="Capa 1">
	<path id="path6177" sodipodi:nodetypes="ccscccscc" d="M427.5,265.2l-21.9,6.5c-13.2,3.9-21.7,6.8-21.3,7.1
		c0.3,0.3,8.8,4.6,18.8,9.4l18,14.5l50.1-19.7c0-0.2-4.8-2.3-10.6-4.6c-5.8-2.3-15.6-6.2-21.8-8.7L427.5,265.2L427.5,265.2z"/>
	<path id="path6179" sodipodi:nodetypes="ccccsccssccccsssssccccsccssscccccccsccccc" d="M344,180.8c-0.4,0-0.8,0.2-1.1,0.3
		L177,236.5c-0.3,0.6-0.8,3.1-1.1,3.7c-0.1,0.4-0.1,0.6-0.2,0.8c-0.1,0.4-0.1,0.6-0.1,0.8v0.6c0,0.2,0,0.3,0.1,0.4
		c0,0.2,0.1,0.4,0.1,0.6c0.1,0.4,0.2,1,0.3,1.7l29,162.1c0.3,1.4,1,2.7,2.1,3.5l1.8,1.5c33.9,26.3,65.1,54.5,99,81
		c0.5,0.4,0.8,0.7,1.2,1c0.2,0.1,0.3,0.2,0.5,0.3c0.1,0.1,0.2,0.2,0.4,0.3c0.1,0.1,0.3,0.1,0.7,0.3c0.3,0.1,0.5,0.5,2.4,0.4v0.1h0.1
		v-0.1c0.1,0,1.6-0.2,2.3-0.5c0.7-0.3,1.2-0.7,1.6-1.1l157.1-86.3c1.3-1.7,1-2,1.1-2.4c0.1-0.3,0.1-0.5,0.1-0.7c0-0.3,0-0.6,0.1-0.8
		c0-0.5,0-1.1,0.1-1.8l-4-114.2l-0.2-4.8l-3.2,0.6L421.1,302c-0.6-2.6-0.7-2.9-0.1-4.2l20.7-26.2c-0.1-0.4,18.3-9.2,18.1-9.5
		c-1.7-5.3,5.2-4.9,5.1-10.6l-4.2-31.2L346.3,181C345.6,180.8,344.8,180.8,344,180.8L344,180.8L344,180.8z"/>
	<path id="path6181" d="M344.7,154.5c-0.2,0-0.4,0-0.6,0.1l-34.6,12.8c-1.1,0.4-1.6,1.6-1.3,2.6c0.1,0.4,0.4,0.7,0.7,0.9l23.4,18.7
		c0.5,0.4,1.3,0.5,1.9,0.3l34-11.1c1.1-0.3,1.7-1.5,1.4-2.6c-0.1-0.4-0.3-0.7-0.6-1L346.2,155C345.8,154.6,345.2,154.4,344.7,154.5
		L344.7,154.5z"/>
	<path id="path6183" sodipodi:nodetypes="ccccc" d="M256.9,213.9l3.2,34.3l-33.8-22.8l2.3-31.8L256.9,213.9z"/>
	<path id="path6185" sodipodi:nodetypes="ccccc" d="M314.3,193.2l-57.4,20.8l3.2,34.3l57.4-20.8L314.3,193.2L314.3,193.2z"/>
	<path id="path6187" sodipodi:nodetypes="cccccc" d="M318.4,239.5l3.1,33.1L281,262.5l-3.1-33.2L318.4,239.5L318.4,239.5
		L318.4,239.5z"/>
	<path id="path6189" sodipodi:nodetypes="ccccccc" d="M318.4,239.5l3.1,33.1l41.5-27.5l-3.1-33.2L318.4,239.5L318.4,239.5
		L318.4,239.5L318.4,239.5z"/>
	<path id="path6191" sodipodi:nodetypes="ccccc" d="M308.3,169.6l25.4,18.4l2.9,29.9l-33.5-21.6L308.3,169.6L308.3,169.6z"/>
	<path id="path6193" sodipodi:nodetypes="ccccc" d="M333.7,188l2.9,29.9l23.2-12.9l9.7-28.2L333.7,188z"/>
	<path id="path6195" d="M375.4,180.4c-0.2,0-0.3,0.1-0.4,0.1l-35.8,13.1c-1.1,0.4-1.7,1.7-1.3,2.8c0.2,0.4,0.5,0.8,0.9,1.1
		l30.3,20.2c0.6,0.4,1.4,0.5,2.1,0.2l40.1-16.3c1.1-0.5,1.6-1.8,1.1-2.9c-0.2-0.5-0.6-0.8-1-1.1l-34.6-17
		C376.3,180.4,375.9,180.3,375.4,180.4L375.4,180.4z"/>
	<path id="path6197" sodipodi:nodetypes="cccccccscccc" d="M290.4,180.7c-0.1,0-0.3,0-0.4,0.1L230.8,191c-2.1,0.4-2.9,3.5-1.2,4.8
		l25.7,20.3c0.7,0.6,1.8,0.8,2.6,0.4l57-14.7c1-0.4,1.8-1.4,1.8-2.5c0-1.1-0.7-2.2-1.7-2.6L291.4,181
		C291.1,180.8,290.7,180.7,290.4,180.7L290.4,180.7L290.4,180.7z"/>
	<path id="path6199" sodipodi:nodetypes="ccccc" d="M410.4,199.6l2.9,31l-40.1,16.3l-2.9-30.9L410.4,199.6L410.4,199.6z"/>
	<path id="path6201" d="M417.6,191c-0.3,0-0.7,0.1-1,0.3l-36.8,22.4c-1,0.6-1.3,1.8-0.7,2.7c0.3,0.5,0.8,0.8,1.3,1l38.3,8.5
		c0.5,0.1,1,0,1.5-0.2l42.8-24.4c1-0.6,1.3-1.8,0.7-2.8c-0.3-0.5-0.8-0.9-1.4-0.9l-44.3-6.6C417.9,191.1,417.8,191,417.6,191
		L417.6,191z"/>
	<path id="path6203" sodipodi:nodetypes="ccccccc" d="M419.3,224l42.9-25.1c0.7,0.1,1.2-0.6,1.7,0.3l1.3,58.3c0,2.1,0.2,3.5-2.2,4.6
		l-38.6,24.7L419.3,224L419.3,224z"/>
	<path id="path6205" sodipodi:nodetypes="ccccc" class="st0" d="M344.8,156.6l-34.6,12.7l23.4,18.6l34-11L344.8,156.6L344.8,156.6z"
		/>
	<path id="path6207" class="st0" d="M181.6,242c-0.1,0.1,2.1,12.4,4.7,27.3c4.2,23.5,5,27.3,6,28.1c1.4,1.1,26.3,13.8,26.9,13.7
		c0.2,0-1.5-12.2-3.8-27.2c-2.3-14.9-4.4-27.5-4.6-27.9C210.6,255.4,181.9,241.6,181.6,242L181.6,242z"/>
	<path id="path6209" class="st0" d="M215.7,257.8l0.1,2.1c0.1,1.1,2,13.8,4.3,28.1l4.2,26l15.7,8c8.6,4.4,15.7,8,15.8,7.9
		c0,0-1.5-12.7-3.5-28.2l-3.6-28.2l-16.5-7.8L215.7,257.8L215.7,257.8z"/>
	<path id="path6211" class="st1" d="M412.4,247.1c-3.8,0.9-57.4,21.2-58.1,21.9c-0.2,0.2,0.7,9.8,1.9,21.3c1.3,11.5,2.6,24.3,3,28.6
		c0.4,4.2,1,7.6,1.2,7.6c0.3,0,13-5.2,28.2-11.5c15.2-6.3,27.8-11.6,27.9-11.8c0.4-0.6-3.6-55.7-4-56.1
		C412.6,247.1,412.5,247.1,412.4,247.1L412.4,247.1z"/>
	<path id="path6213" class="st0" d="M252.8,275.4l3.8,28.1c2.8,21.1,4,28.3,4.7,28.9c1,0.9,33.2,17.4,33.9,17.4
		c0.3,0-1-10.3-2.8-22.8c-1.8-12.6-3.5-25.6-3.7-28.9l-0.5-6.1l-1.7-0.4c-0.9-0.2-8.1-3.5-15.9-7.4c-7.8-3.9-15-7.4-16-7.9
		L252.8,275.4L252.8,275.4z"/>
	<path id="path6215" class="st0" d="M349.2,271.1c-2.9,0.4-55.2,20.9-55.8,21.8c-0.5,0.8,0.3,7.6,3.4,29.5
		c2.2,15.6,4.3,28.4,4.5,28.4c0.3,0,12.5-5,27.3-11.1c14.8-6.1,27-11.3,27.3-11.7c0.2-0.3-0.9-12-2.5-25.8
		c-1.6-13.9-2.9-26.6-3-28.2C350.3,271.3,350.2,270.9,349.2,271.1L349.2,271.1z"/>
	<path id="path6217" class="st1" d="M192.9,303.1c-0.4,0.5,7.8,47,8.7,49.7c0.6,1.6,3,3.4,13.9,10.3l13.2,8.4l-1.1-8.7
		c-0.6-4.8-2.5-17.1-4.2-27.5l-3.2-18.8l-13.5-6.9C199.3,305.8,193,302.9,192.9,303.1L192.9,303.1z"/>
	<path id="path6219" class="st1" d="M225.2,319.3c-0.1,0.1,1.8,12.6,4.1,27.6c3.3,21.2,4.5,27.5,5.2,28.1c0.5,0.4,7.4,4.8,15.3,9.8
		l14.4,9.1l-1.5-13.5c-0.8-7.4-2.5-20.7-3.7-29.4l-2.2-15.9l-15.8-8C232.4,322.7,225.2,319.2,225.2,319.3L225.2,319.3z"/>
	<path id="path6221" class="st0" d="M467.7,287.1c-0.7,0.1-46.1,18.6-46.4,18.9c-0.1,0.2,3.8,58.8,4.1,60.8c0.1,0.7,0.5,1,0.9,0.8
		c0.4-0.2,9.9-4.4,21.1-9.2c11.2-4.8,20.7-9.1,21.1-9.4c0.5-0.4,0.6-9.9,0.3-29.3c-0.3-15.8-0.5-29.6-0.4-30.7
		C468.4,287.7,468.2,287,467.7,287.1z"/>
	<path id="path6223" class="st1" d="M417,307.8l-27.9,11.5c-15.3,6.3-28,11.6-28.1,11.8c-0.3,0.3,4.8,48.2,6,56.7l0.7,5.3l26.6-11.5
		c14.6-6.3,26.7-11.7,26.9-12c0.3-0.4-3.2-55-3.9-59.5L417,307.8L417,307.8z"/>
	<path id="path6225" class="st1" d="M261.2,337.5c-0.2,0,1.7,13.5,4,30l4.3,30l17.2,10.8l17.2,10.8l-0.8-8.1
		c-0.4-4.4-2.3-18.9-4.1-32.1l-3.3-24l-17.1-8.7C269.2,341.4,261.4,337.5,261.2,337.5L261.2,337.5z"/>
	<path id="path6227" class="st0" d="M356.5,333.1c-0.3-0.2-54.5,21.8-54.7,22.3c0,0.1,1.7,14.2,4,31.5c4,30.9,4,31.3,5.2,30.9
		c0.6-0.3,12.7-5.5,26.8-11.6l25.7-11.1l-0.6-6.6C361.9,376.8,356.9,333.4,356.5,333.1z"/>
	<path id="path6229" class="st0" d="M203,361C203,361,203,361.1,203,361c0,0.5,1.7,10.9,3.9,23l4,22.1l1.8,1.5
		c1,0.8,6.9,5.7,13.2,10.9l11.4,9.4l-1.5-11.7c-0.8-6.5-2.5-17.9-3.8-25.4l-2.4-13.7l-13.3-8.4C208.9,363.9,203.4,360.8,203,361
		L203,361z"/>
	<path id="path6231" class="st0" d="M235.1,380.4l1.5,11.7c0.8,6.4,2.6,18.1,3.9,26l2.5,14.3l14.8,12.1l14.8,12.1l-0.8-8.2
		c-0.4-4.5-2-17.3-3.6-28.5l-2.8-20.3l-15.2-9.6L235.1,380.4L235.1,380.4z"/>
	<path id="path6233" class="st0" d="M468.2,354.5c-2,0.4-7.3,2.7-20.8,8.5c-11.8,5.1-21.5,9.4-21.5,9.5c0,0.1,0.7,10.6,1.6,23.3
		c0.9,12.8,1.7,24.9,1.8,26.9c0.1,3.5,0.2,3.7,1.3,3.1c0.6-0.3,9.6-5.3,19.9-10.9c10.3-5.7,19-10.6,19.3-10.9
		c0.5-0.7,0-47.7-0.5-49.4C469.1,354.5,468.8,354.4,468.2,354.5L468.2,354.5z"/>
	<path id="path6235" class="st1" d="M421.5,374.5c-0.4-0.2-53,22.6-53.3,23.1c-0.1,0.2,1,11.4,2.6,25c1.5,13.5,2.9,26.7,3.1,29.2
		c0.2,2.5,0.4,4.5,0.6,4.5c0.2,0,11.7-6.3,25.6-13.9l25.3-13.8l0.1-2C425.5,422.8,421.8,374.7,421.5,374.5L421.5,374.5z"/>
	<path id="path6237" class="st0" d="M270.2,402.8c-0.3-0.1,1.3,13,3.6,29.1l4.2,29.2l17.4,14.3c9.6,7.9,17.6,14.3,17.8,14.3
		c0.2,0-1-11-2.7-24.4c-1.7-13.4-3.6-28-4.2-32.5l-1.2-8.1l-17.2-10.9C278.5,407.9,270.5,402.9,270.2,402.8L270.2,402.8z"/>
	<path id="path6239" class="st0" d="M363.9,399.6c-0.2-0.2-16,6.6-52.4,22.4c-1,0.4-0.7,2.5,3.5,32.4c2.5,17.7,4.8,31.8,5.1,31.7
		c0.3-0.2,11.8-6.4,25.6-14l25.1-13.7l-0.5-3.8c-0.3-2.1-1.8-15.3-3.3-29.3C365.4,411.3,364.1,399.7,363.9,399.6L363.9,399.6z"/>
	<path id="path6241" class="st0" d="M232.4,222.1l-21.6,6.8c-11.9,3.7-21.8,7-21.9,7.2c-0.2,0.2,0.2,0.6,0.7,0.8
		c0.6,0.2,6.2,3,12.6,6c6.4,3.1,12,5.6,12.5,5.5c0.5,0,10.4-3.5,22-7.6c11.6-4.1,21.3-7.7,21.5-8c0.2-0.2-5.5-2.8-12.7-5.6
		L232.4,222.1L232.4,222.1z"/>
	<path id="path6243" class="st0" d="M309.1,252.2l-23.4,9.4c-12.9,5.2-23.4,9.6-23.4,9.8c0.1,0.5,28.8,14.3,29.6,14.2
		c0.3,0,12.1-4.4,26.1-9.7c14-5.3,25.6-9.8,25.7-9.9c0.1-0.1-7.6-3.3-17.2-7L309.1,252.2L309.1,252.2z"/>
	<path id="path6245" class="st1" d="M263.9,235.4c-0.7,0.3-10.6,3.8-22.1,7.9c-11.4,4.1-21.1,7.5-21.4,7.7
		c-0.3,0.2,7.7,4.2,17.7,9.1l18.3,8.8l18-7.2c9.9-4,20.4-8.2,23.3-9.3c2.9-1.2,5-2.3,4.7-2.5c-0.3-0.2-8.8-3.7-18.9-7.6
		C270.9,237.2,264.7,235.1,263.9,235.4z"/>
	<path id="path6247" sodipodi:nodetypes="ccccc" class="st1" d="M318.8,206.7l-40.9,22.7l40.4,10.2l41.5-27.5L318.8,206.7
		L318.8,206.7z"/>
	<path id="path6249" sodipodi:nodetypes="ccccc" class="st1" d="M375.8,182.6l-35.9,13.2l30.3,20.2l40.1-16.3L375.8,182.6
		L375.8,182.6z"/>
	<path id="path6251" sodipodi:nodetypes="ccccc" class="st0" d="M290.4,183.5l-59.2,10.1l25.7,20.3l57.2-13.1L290.4,183.5
		L290.4,183.5z"/>
	<path id="path6253" sodipodi:nodetypes="ccccc" class="st0" d="M417.8,193l-36.8,22.4l38.3,8.5l42.8-24.3L417.8,193L417.8,193z"/>
	<path id="path6255" class="st0" d="M371,227.4l-27.7,11.1c-15.2,6.1-27.7,11.3-27.7,11.5c0,0.2,7.8,3.4,17.3,7.1l17.2,6.7
		l28.8-10.9c15.8-6,28.9-11,29-11.2c0.1-0.2-8.1-3.4-18.3-7.3L371,227.4L371,227.4z"/>
	<path id="path6257" sodipodi:nodetypes="ccccc" class="st0" d="M462.3,204.8l-42.2,24.5l4.3,54.6l38.7-24.7L462.3,204.8
		L462.3,204.8z"/>
</g>
</svg>
