<svg id="Layer_1" data-name="Layer 1" xmlns="http://www.w3.org/2000/svg" viewBox="0 0 54.74 48.85">
  <defs>
    <style>
      @import url("/css/style.css");
      .cls-1 {
        fill: #787878;
      }
    </style>
  </defs>
  <title>itchio</title>
  <g id="itchio">
    <path class="cls-1" d="M390.58,420.52V389.67c2.91,0.59,5.18-.43,7-2.93a6.52,6.52,0,0,0,5.42,3.12,6.29,6.29,0,0,0,5.51-3.15c1.39,1.89,3.08,3.13,5.4,3.15a6.33,6.33,0,0,0,5.56-3.14,6.66,6.66,0,0,0,5.55,3.14,6.37,6.37,0,0,0,5.46-3.18,6.45,6.45,0,0,0,7.53,2.88v31H390.58Zm44.51-9.15c-1.1-4.29-2-9.49-4.24-14.24a8.67,8.67,0,0,0-4.7-4.27c-2.54-1-4.49-.26-5.85,2.1a1.78,1.78,0,0,1-1.24.81c-3.19.07-6.38,0.06-9.57,0a1.53,1.53,0,0,1-1.18-.65c-1.11-2.88-4.34-3.33-6.88-1.81a11,11,0,0,0-5,6.6c-1,3.3-1.85,6.63-2.72,10a9.41,9.41,0,0,0-.33,2.59c0.11,4.15,3.47,6.22,7,4.08,1.68-1,2.87-2.84,4.32-4.25a2.71,2.71,0,0,1,1.49-.91q8-.1,16.05,0a2.92,2.92,0,0,1,1.61,1,46.27,46.27,0,0,0,3.94,4,4.48,4.48,0,0,0,5.1.41C434.66,415.83,435.12,414.09,435.09,411.37Z" transform="translate(-386.77 -371.67)"/>
    <path class="cls-1" d="M430.32,383.57c-0.92,2.78-2.54,4.42-5.22,4.46s-4.53-1.62-5.55-4.48c-1.06,2.85-2.82,4.54-5.65,4.48s-4.43-1.67-5.44-4.48c-1,2.78-2.66,4.53-5.45,4.49s-4.4-1.67-5.35-4.41l-0.55,1.11a5.46,5.46,0,0,1-5.61,3.25,5.9,5.9,0,0,1-4.64-5,5,5,0,0,1,1.27-4.66c1.82-1.81,3.33-3.92,5.07-5.82a2.76,2.76,0,0,1,1.8-.84q18.84-.07,37.69,0a2.87,2.87,0,0,1,1.83.82c1.91,1.95,3.72,4,5.57,6a5.82,5.82,0,0,1-2.28,9.2,5.59,5.59,0,0,1-6.74-2.61C430.84,384.71,430.67,384.29,430.32,383.57Z" transform="translate(-386.77 -371.67)"/>
    <path class="cls-1" d="M414.06,397l7.7,8.28h-4v4.26H410.2V405.4h-3.94Z" transform="translate(-386.77 -371.67)"/>
  </g>
</svg>
