<?xml version="1.0" encoding="utf-8"?>
<!-- Generator: Adobe Illustrator 18.0.0, SVG Export Plug-In . SVG Version: 6.00 Build 0)  -->
<!DOCTYPE svg PUBLIC "-//W3C//DTD SVG 1.1//EN" "http://www.w3.org/Graphics/SVG/1.1/DTD/svg11.dtd">
<svg version="1.1" id="Layer_1" xmlns="http://www.w3.org/2000/svg" xmlns:xlink="http://www.w3.org/1999/xlink" x="0px" y="0px"
	 viewBox="0 0 150 150" enable-background="new 0 0 150 150" xml:space="preserve">
<g>
	<path d="M45.8,84.3c0-4,12.7-1.6,13.7-5.4c4.9-18.7,9.2-38.7,28.7-38.7c23.4,0,42.4,19.7,42.4,44.1s-19,44.1-42.4,44.1
		S45.8,108.7,45.8,84.3z"/>
	<path d="M93.9,126.5c-3.8,3.9-19.6,0.6-26.4-0.6c-9.2-1.6-20.1-7.4-29.7-16.6C21,93.1,14.5,72.6,23.4,63.5S52.9,60,69.6,76.2
		S102.7,117.3,93.9,126.5z"/>
	<path d="M56.8,37.5c-1.8,9.4-3,28.5-3,50.5c0,31.3,2.5,56.7,5.6,56.7s5.6-25.4,5.6-56.7c0-22.1-1.2-41.3-3.1-50.6L56.8,37.5z"/>
	<path d="M53.5,20.1c0,5.3,1.1,13.1,5.4,13.1s5.4-7.4,5.4-12.8S57.4,2.4,57,5.8C56,14.2,53.5,20.1,53.5,20.1z"/>
	<circle fill="#FFFFFF" cx="88.1" cy="56.6" r="6.4"/>
	<circle fill="#FFFFFF" cx="110.1" cy="67.3" r="6.4"/>
	<circle fill="#FFFFFF" cx="115.5" cy="91.2" r="6.4"/>
	<circle fill="#FFFFFF" cx="101.9" cy="111.3" r="6.4"/>
</g>
</svg>
