<svg id="Layer_1" data-name="Layer 1" xmlns="http://www.w3.org/2000/svg" viewBox="0 0 50.24 40.83">
  <defs>
    <style>
      .cls-1 {
        fill: #787878;
      }
    </style>
  </defs>
  <title>twitter</title>
  <path id="twitter" class="cls-1" d="M218.21,379.71a20.58,20.58,0,0,1-5.92,1.62,10.33,10.33,0,0,0,4.53-5.7,20.6,20.6,0,0,1-6.54,2.5,10.32,10.32,0,0,0-17.57,9.4,29.25,29.25,0,0,1-21.24-10.77,10.32,10.32,0,0,0,3.19,13.76,10.26,10.26,0,0,1-4.67-1.29v0.13a10.32,10.32,0,0,0,8.27,10.11,10.38,10.38,0,0,1-2.72.36,10.24,10.24,0,0,1-1.94-.19,10.32,10.32,0,0,0,9.63,7.16,20.68,20.68,0,0,1-12.8,4.41,21.27,21.27,0,0,1-2.46-.14,29.19,29.19,0,0,0,15.8,4.63c19,0,29.32-15.7,29.32-29.33,0-.45,0-0.89,0-1.34A21,21,0,0,0,218.21,379.71Z" transform="translate(-167.97 -374.88)"/>
</svg>
