<?xml version="1.0" encoding="utf-8"?>
<!-- Generator: Adobe Illustrator 18.0.0, SVG Export Plug-In . SVG Version: 6.00 Build 0)  -->
<!DOCTYPE svg PUBLIC "-//W3C//DTD SVG 1.1//EN" "http://www.w3.org/Graphics/SVG/1.1/DTD/svg11.dtd">
<svg version="1.1" id="Layer_1" xmlns="http://www.w3.org/2000/svg" xmlns:xlink="http://www.w3.org/1999/xlink" x="0px" y="0px"
	 viewBox="0 0 250 250" enable-background="new 0 0 250 250" xml:space="preserve">
<g>
	<g>
		<g>
			<g>
				<g>
					<path d="M192.8,43.8c0,0,0,0,0.1,0c0.2,0.1,0.6,0.2,1.1,0c0.2-0.1,0.5-0.1,0.8,0.1c0.3,0.2,0.6,0.7,0.4,1.5
						c0,0.1-0.1,0.3-0.1,0.4c0,0.1-0.6,0.7-1.4,1.2c-0.9,0.5-2,1-3.4,1.5l-0.3,0.1l-0.2,0.1c-0.6,0.2-1.1,0.3-1.7,0.5
						c-2.2,0.6-4.5,1.1-6.8,1.5c-4.6,0.8-9.4,1.4-14.4,1.8c-9.9,0.9-20.3,1.4-31,1.6c-10.7,0.2-21.8,0.1-33.1-0.4
						c-11.2-0.5-22.7-1.3-34-3.2c-2.8-0.5-5.7-1-8.5-1.8c-1.4-0.4-2.8-0.8-4.3-1.5c-0.7-0.4-1.4-0.7-2.2-1.4
						c-0.1-0.1-0.2-0.2-0.3-0.3c-0.1-0.1-0.2-0.3-0.3-0.4c-0.2-0.3-0.4-0.6-0.4-0.9c-0.2-0.7-0.1-1.4,0.2-2c0.2-0.3,0.4-0.6,0.6-0.8
						c0.2-0.2,0.4-0.4,0.6-0.5c0.4-0.3,0.7-0.5,1.1-0.7c0.7-0.4,1.4-0.7,2.1-1c1.4-0.5,2.8-0.9,4.2-1.3c2.8-0.7,5.6-1.2,8.4-1.6
						c11.2-1.6,22.2-2.3,32.9-2.7c21.3-0.7,41.2-0.2,58.2,1.1c4.3,0.4,8.3,0.8,12.2,1.3c1.9,0.2,3.8,0.5,5.6,0.8
						c0.9,0.2,1.8,0.3,2.7,0.5c0.1,0,0.3,0.1,0.4,0.1c0.6,0.1,1,0.2,1.4,0.3c0.8,0.2,1.2,0.3,1.2,0.3s1.2,0.3,2.7,0.9
						c1.5,0.5,3.5,1.3,5,2.3c1.3,0.8,2,1.7,2.1,2.4c0,0.6-0.2,0.7-0.3,0.6c-0.2-0.1-0.3-0.4-0.7-0.6c-0.4-0.3-1.1-0.6-1.8-0.8
						c0.2,0.1-1.7-0.6-3.7-1c-2-0.4-4.2-0.7-4.2-0.7s-0.4-0.1-1.2-0.2c-0.2,0-0.4-0.1-0.6-0.1c-0.8-0.1-1.7-0.3-2.7-0.5
						c-6.6-1.1-14.2-1.9-22.6-2.5c-16.6-1.2-36.2-1.6-57.1-0.7c-10.4,0.5-21.2,1.2-32,3c-2.7,0.5-5.4,1-7.9,1.8
						c-1.2,0.4-2.5,0.9-3.4,1.5c-0.2,0.1-0.4,0.3-0.4,0.4l0,0l0,0c0,0,0.1,0.1,0.1,0.1c0.1,0.1,0.2,0.1,0.3,0.2
						c0.9,0.6,2.1,1.1,3.4,1.5c1.3,0.4,2.6,0.8,3.9,1.1c2.7,0.6,5.4,1.1,8.1,1.5c11,1.6,22.2,2.4,33.2,2.8c11,0.4,21.9,0.5,32.4,0.3
						c10.5-0.2,20.7-0.7,30.3-1.7c4.8-0.5,9.5-1,13.9-1.9c2.2-0.4,4.4-0.9,6.4-1.5c0.3-0.1,0.7-0.2,1-0.3l0.2-0.1
						c1.2-0.4,2.2-0.8,2.7-1.2c0.3-0.2,0.5-0.3,0.5-0.4C192.8,43.9,192.8,43.8,192.8,43.8z"/>
				</g>
			</g>
		</g>
		<g>
			<g>
				<g>
					<path d="M54.7,46.1c0-0.1,0-0.1,0.1-0.2c0.4-0.7,1.4-1.8,2.9-0.3c0,0,0.1,0.2,0.1,0.2c0.1,0.9,0.2,1.9,0.3,2.8
						c0.1,0.5,0.1,0.9,0.2,1.4l0.1,0.7l0.1,0.7c0.1,0.5,0.2,1,0.4,1.2l0,0.1l0,0c-0.6,0.3-0.1,0.1-0.2,0.1l0.2-0.1c0.1,0,0,0,0,0
						c0,0,0.1,0.1,0.1,0.1c0.1,0.1,0.3,0.3,0.5,0.4c0.4,0.3,0.8,0.6,1.2,0.8l0.6,0.4l0.3,0.2l0.6,0.4l0.7,0.4
						c0.1,0.2,0.1,0.5,0.1,0.8l0.2,1.2l0.2,1.6l2.7,17.9l0.7,4.5c0.1,0.5,0.1,0.4,0.1,0.4l0.6,0.6l0.6,0.6l0.2,0.2
						c0.1,0.1,0.1,0.1,0.1,0.2l0.1,0.6l0.1,1.3l0.9,9l0.3,2.9l3.7,37.4l1.8,18.7l2.1,18.7l2.1,18.7l0.1,1.2l0,0.2c0,0,0,0,0,0
						l0.9,1.1l0.4,0.5c0.1,0.2,0,0.4,0,0.6l0,0.9l0,4.7l0,2.4l0,1c0,0,0,0,0,0l0.3,0.3c0.1,0.1,0.3,0.2,0.4,0.3l0.9,0.6
						c0.6,0.4,1.2,0.8,1.9,1.1c5.3,2.8,11.3,4.6,17.3,5.9c6,1.3,12.2,2.1,18.4,2.3c0.9,0,1.8,0.1,2.7,0.1c3,0.1,6.1-0.1,9.1-0.3
						c3-0.3,6-0.6,9-1.2c5.9-1.2,11.7-3,17-5.9c0.7-0.3,1.3-0.8,1.9-1.1c0.6-0.4,1.3-0.8,1.9-1.2l0.9-0.6l0.1-0.1l0,0l0-1.7l0-4.6
						l0-1.5l0-0.6c0.1-0.2,0.3-0.3,0.4-0.4l0.7-0.7l1.6-1.6l0.4-0.4l0.1-0.6l0.2-2.3l0.4-4.6l0.8-9.2c0.6-6.2,1.1-12.3,1.7-18.5
						l2.8-18.3l5.7-36.6l0.9-5.9l1.5-9.6l0.4-2.4l0.2-1.6l0.1-0.6c0.1-0.1,0.3-0.2,0.5-0.3l0.8-0.6l0.9-0.6l0,0l0.3-2.3l1-7.6
						l0.3-2.2c0,0,0.9-4.7,1.8-7.9c1.4-5.5,1.8-3.2,1.7,0.3c0.1-0.4-0.5,8.4-0.5,8.4l-0.3,2l-1.2,9.2l-0.2,1.7
						c0,0.2-0.2,0.3-0.3,0.4l-0.5,0.3l-0.7,0.4l-0.9,0.6l0,0l-0.6,4.1l-1.4,8.7l-0.9,5.8l-5.7,36.6l-2.8,18.3
						c-0.6,6.1-1.1,12.3-1.7,18.4l-0.8,9.2l-0.4,4.6l-0.2,2.3l-0.2,1.7c-0.2,0.3-0.5,0.6-0.8,0.8l-0.4,0.4l-1.6,1.6l-0.1,0.1l0,0.8
						l0,4.6l0,2.9l0,0.3l0,0.1l-0.1,0.1l-0.5,0.3l-0.8,0.6l-1,0.7c-0.6,0.5-1.3,0.9-2,1.3c-0.7,0.4-1.3,0.9-2.1,1.2
						c-5.6,3.1-11.7,5-17.9,6.2c-3.1,0.6-6.2,1-9.3,1.2c-3.1,0.2-6.3,0.3-9.4,0.3c-0.9,0-1.8-0.1-2.8-0.1c-6.4-0.3-12.7-1-18.9-2.4
						c-3.1-0.7-6.2-1.5-9.2-2.5c-3-1-6-2.2-8.9-3.7c-0.7-0.4-1.4-0.8-2.1-1.3l-1-0.7c-0.2-0.1-0.3-0.2-0.5-0.4l-0.6-0.5l-0.9-0.8
						c-0.1-0.4,0-0.8,0-1.2l0-1.3l0-2.4l0-4.7l0-0.3l-0.6-0.7l-0.4-0.4l-0.2-0.2c-0.1-0.1,0-0.2-0.1-0.3l-0.1-0.9l-0.1-1.2
						l-2.1-18.7l-2.1-18.7l-1.8-18.7l-3.7-37.4l-0.3-2.9l-0.9-9l-0.1-0.9l-0.2-0.2l-1-1C64.3,83.3,64,83.2,64,83l-0.1-0.6l-0.1-0.7
						l-0.7-4.5l-2.7-17.9l-0.3-2l-0.4-0.3L59,56.7c-0.5-0.3-1-0.6-1.4-1c-0.2-0.2-0.5-0.4-0.7-0.7c-0.1-0.2-0.3-0.3-0.4-0.5
						c-0.2-0.2-0.3-0.4-0.3-0.6c-0.3-0.7-0.4-1.3-0.6-1.8l-0.2-0.8l-0.1-0.7c-0.1-0.5-0.1-1-0.2-1.5C54.9,48.1,54.8,47.1,54.7,46.1z
						"/>
				</g>
			</g>
		</g>
		<g>
			<g>
				<g>
					<path d="M62,58.3c-0.1,0-0.1,0-0.2-0.1c-0.5-0.7-1-2,1-2.7c0,0,0.2,0,0.3,0l2.4,0.9l2.4,0.8c8.8,2.7,17.8,4.4,27,5.5
						c9.2,1.1,18.4,1.7,27.6,1.9c9.2,0.1,18.5-0.2,27.7-1c4.6-0.4,9.2-1,13.7-1.9l2-0.4c0.5-0.1,1-0.2,1.5-0.3c0,0,4.6-0.7,7.8-1.5
						c1.4-0.3,2.2-0.6,2.8-0.7c0.5-0.1,0.7,0,0.7,0.2c-0.1,0.4-1.3,1.3-2.9,2.1c0.2,0-1.8,0.9-3.8,1.6c-1,0.4-2.1,0.7-2.9,0.9
						c-0.8,0.2-1.3,0.4-1.3,0.4l-1.5,0.3l-0.7,0.2l-0.9,0.2l-1.7,0.3c-4.6,0.8-9.1,1.4-13.7,1.8c-9.2,0.8-18.4,1.1-27.5,0.9
						c-9.2-0.2-18.4-0.8-27.5-1.9c-9.1-1.1-18.2-2.9-27.1-5.6l-2.5-0.8L62,58.3z"/>
				</g>
			</g>
		</g>
		<g>
			<g>
				<g>
					<path d="M67,85.8c-0.1,0-0.1-0.1-0.1-0.2c-0.4-0.8-0.4-2.2,1.7-2.4c0,0,0.2,0,0.3,0l1,0.7l1.1,0.6l1.1,0.6l1.1,0.6
						c3.5,1.8,7.2,3.1,11.1,4.2c3.8,1.1,7.7,2,11.7,2.7c7.9,1.3,15.9,2.1,24,2.2c8,0.2,16.1-0.2,24-1.2c4-0.5,7.9-1.3,11.8-2.3
						l1.2-0.3l0.7-0.2l1.4-0.4c0,0,0.3-0.1,0.8-0.2c0.5-0.1,1.1-0.3,1.9-0.5c1.5-0.4,3.4-1,5-1.5c0.7-0.2,1.2-0.4,1.6-0.6
						c0.4-0.2,0.8-0.3,1.1-0.3c0.5-0.1,0.7-0.1,0.7,0.1c0,0.2-0.4,0.5-0.8,1c-0.5,0.4-1.1,0.9-1.9,1.4c0.1,0-0.3,0.2-1,0.6
						c-0.7,0.4-1.7,0.8-2.7,1.3c-1,0.5-2,0.9-2.8,1.2c-0.8,0.3-1.3,0.5-1.3,0.5l-1.5,0.4c-0.2,0.1-0.5,0.1-0.7,0.2l-2.3,0.6
						c-3.9,0.9-7.9,1.6-11.9,2.1c-4,0.5-8,0.8-12,1c-4,0.2-8,0.2-12.1,0.1c-8-0.2-16.1-0.9-24-2.3c-4-0.7-7.9-1.6-11.8-2.7
						c-3.9-1.1-7.7-2.5-11.4-4.4L70.4,88l-1.2-0.7l-1.2-0.7L67,85.8z"/>
				</g>
			</g>
		</g>
		<g>
			<g>
				<g>
					<path d="M74.1,157.3c-0.1,0-0.1-0.1-0.1-0.2c-0.4-0.8-0.5-2.2,1.6-2.4c0,0,0.2,0,0.3,0l1,0.7l1.1,0.6l1.1,0.6l1.1,0.6
						c5.7,2.9,12,4.9,18.3,6.4c6.4,1.5,12.9,2.5,19.4,3c6.5,0.5,13.1,0.7,19.6,0.2c3.2-0.2,6.5-0.6,9.7-1.2l1.8-0.4
						c0.5-0.1,1-0.2,1.4-0.3c0,0,0.3-0.1,0.8-0.1c0.5-0.1,1.1-0.2,1.9-0.4c1.5-0.3,3.4-0.9,4.9-1.4c0.6-0.3,1.2-0.5,1.6-0.7
						c0.4-0.2,0.7-0.3,1-0.4c0.5-0.2,0.7-0.2,0.7,0.1c0,0.4-1,1.6-2.6,2.6c0.2-0.1-1.7,1.1-3.7,2c-2,0.9-4.2,1.5-4.2,1.5
						c-0.5,0.1-1,0.2-1.5,0.3l-0.7,0.2l-0.7,0.1l-1.2,0.2c-3.3,0.6-6.6,0.9-9.9,1.1c-6.6,0.4-13.2,0.2-19.7-0.4
						c-6.5-0.6-13.1-1.6-19.5-3.1c-6.4-1.5-12.8-3.5-18.7-6.6l-1.2-0.6l-1.2-0.7l-1.2-0.7L74.1,157.3z"/>
				</g>
			</g>
		</g>
		<g>
			<g>
				<g>
					<path d="M79.6,196.2c-0.1,0-0.1-0.1-0.1-0.2c-0.4-0.8-0.5-2.2,1.5-2.5c0,0,0.2,0,0.3,0c1.4,0.9,2.9,1.6,4.4,2.3
						c4.8,2.2,9.9,3.7,15,5c5.2,1.2,10.5,2.1,15.8,2.6c5.3,0.5,10.6,0.7,15.9,0.4c2.6-0.2,5.3-0.4,7.9-0.9l1.7-0.3l1.4-0.3
						c0,0,0.3,0,0.8-0.1c0.5-0.1,1.1-0.2,1.9-0.4c0.8-0.1,1.6-0.4,2.5-0.6c0.8-0.3,1.7-0.4,2.5-0.7c1.3-0.4,2.2-0.8,2.7-0.9
						c0.5-0.1,0.7-0.1,0.7,0.1c-0.1,0.4-1.2,1.4-2.8,2.4c0.2,0-1.7,1-3.8,1.8c-1,0.4-2.1,0.7-2.9,1c-0.8,0.2-1.3,0.4-1.3,0.4
						c-0.5,0.1-1,0.2-1.5,0.3l-0.8,0.1l-0.6,0.1c-0.3,0.1-0.7,0.1-1,0.2c-2.7,0.4-5.4,0.6-8.1,0.8c-5.4,0.3-10.8,0-16.1-0.5
						c-5.3-0.6-10.7-1.5-15.9-2.7c-5.2-1.3-10.4-2.9-15.4-5.1C82.7,197.9,81.1,197.1,79.6,196.2z"/>
				</g>
			</g>
		</g>
	</g>
	<path d="M195.6,44.9c0.2,0.9-1,0.9-2,0.9c-1,0-2.6-1.5-2-2.2c0.2-0.3,0.5-0.3,0.7-0.7c0.2-0.7,1-1.4,1.4-1
		C194.6,42.5,195.5,44.2,195.6,44.9z"/>
	<path fill="#FFFFFF" d="M165.1,191.5c0,0-2.2,2-2.9,3.6c-0.3,0.6-0.2,2-0.2,2.6c0,1.2-2-2.4-2-3.6s1-2.3,2.2-2.3
		C163.3,191.8,162.8,191.2,165.1,191.5z"/>
	<path fill="#FFFFFF" d="M166.9,196.7c0,0,1.7-1.6,2.6-3.1c0.3-0.5,0.5-2.6,0.6-3c0.1-0.9,2.8,1.4,2,3.7c-0.4,1.2-1,2.2-2.2,2.2
		C168.7,196.4,168.7,196.8,166.9,196.7z"/>
</g>
</svg>
