<?xml version="1.0" encoding="utf-8"?>
<!-- Generator: Adobe Illustrator 18.0.0, SVG Export Plug-In . SVG Version: 6.00 Build 0)  -->
<!DOCTYPE svg PUBLIC "-//W3C//DTD SVG 1.1//EN" "http://www.w3.org/Graphics/SVG/1.1/DTD/svg11.dtd">
<svg version="1.1" id="Layer_1" xmlns="http://www.w3.org/2000/svg" xmlns:xlink="http://www.w3.org/1999/xlink" x="0px" y="0px"
	 viewBox="0 0 250 250" enable-background="new 0 0 250 250" xml:space="preserve">
<g>
	<g>
		<path d="M206,159c-23.7,0-47.4,0-71.1,0c0.7-2.1,1.5-4.2,2.2-6.4c-1.3,0.9-2.6,1.7-3.8,2.7c-0.4,0.3-0.5,0.9-0.8,1.4
			c-0.2,0.3-0.3,0.7-0.6,0.8c-0.8,0.3-1.2,0.8-1.3,1.6c-4,0-8,0-12,0c-0.5-1.7-1-3.3-1.6-5c-0.1,0-0.2,0.1-0.3,0.1
			c0.5,1.6,1.2,3.1,0.8,4.9c-19,0-55.9,0-74.9,0c1.1-3.6,20.1-7.2,21.2-10.8c1.1-3.5,2.7-6.7,4.6-9.8c0.8-1.3,2.2-1.7,3.4-2.3
			c1.2-0.5,2.5-0.8,3.7-1.2c4.7-1.7,9.5-3.1,14.1-5c3-1.3,6.3-2.1,9.4-3.1c0.3-0.1,0.7-0.5,0.8-0.8c0.5-1.5,1.3-2.9,2.4-4.1
			c0.2-0.2,0.3-0.7,0.2-1c-0.5-1.8-1.1-3.5-1.7-5.3c-0.1-0.3-0.1-0.5-0.2-0.8c0.1,0,0.1,0,0.2-0.1c0.3,0.8,0.6,1.5,1,2.3
			c0.2,0.3,0.4,0.6,0.8,1c-0.3,0.7,0.7,0.5,1,0.9c-0.1,0.1-0.1,0.3-0.2,0.5c0.3,0,0.4,0,0.7,0c-0.2,0.7-0.1,1.2,0.7,1.3
			c0.2,0,0.5,0.3,0.6,0.6c0.2,0.2,0.2,0.6,0.4,0.8c1.3,1.3,1.8,3.1,2.8,4.5c0.4,0.6,0.5,1.5,1.5,1.6c0.4,0,0.7,0.2,1.1,0.3
			c0.2-0.1,0.5-0.3,0.8-0.5c-0.2,0.8-0.3,1.3-0.4,1.9c0,0.1,0,0.3,0.1,0.3c0.6,0.3,1.2,0.6,1.9,0.8c0.5,0.2,1.1,0.4,1.5,0.7
			c0.4,0.2,0.5,0.8,0.9,0.9c0.9,0.3,0.8,0.9,0.7,1.5c0,0.2,0,0.5,0.1,0.7c0.3,0.4,0.6,0.8,1.1,1.4c0.4,0,1-0.1,1.7-0.1
			c-0.1,0.2-0.3,0.4-0.5,0.6c0.4,0.4,0.7,0.7,1.2,1.1c0.2-0.4,0.3-0.7,0.5-1c0.1-0.1,0.3-0.2,0.5-0.3c0.1,0.2,0.3,0.5,0.4,0.7
			c0.1,0,0.1,0,0.2,0c0-0.5,0.1-1,0.1-1.6c0.7,0.1,1.6,0.3,2.3,0.4c0.2-0.4,0.4-0.8,0.5-1.3c0-0.4-0.1-0.8-0.2-1.3
			c-0.2,0.1-0.5,0.4-0.5,0.3c-0.6-0.7-1.1,0.2-1.7,0.2c0-0.4,0.1-0.9,0.1-1.1c-0.7-0.2-1.4-0.3-2-0.4c-1.6-0.3-1.6-0.3-1.6-0.6
			c1.8-0.2,3.5-0.4,5.3-0.7c0.3,0,0.6-0.1,0.8-0.3c0.4-0.5,0.8-1,1.1-1.5c0.5-0.9,0.3-1.4-0.8-1.5c-0.7-0.1-1.3-0.1-2.1-0.2
			c0.1-0.3,0.1-0.6,0.2-0.8c0.6-0.6,1.1-1.1,1.8-1.5c0.7-0.4,0.9-0.7,0.5-1.3c-0.4-0.7-0.7-1.3-1-2c0.3-0.2,0.6-0.4,0.8-0.5
			c0-0.1-0.1-0.1-0.1-0.2c-0.3,0.1-0.5,0.1-0.9,0.2c0.2-0.3,0.4-0.5,0.4-0.8c0-0.4,0-0.8-0.1-1.1c0-0.1-0.5,0-0.8,0
			c-0.8,0-1.7-0.1-2.5-0.1c0-0.1,0-0.2,0-0.3c0.4-0.3,0.8-0.5,1.3-0.2c0.7,0.4,1.1,0.2,1.4-0.5c0.2-0.4,0.5-0.9,0.6-1.3
			c0.1-0.3,0-0.7-0.1-0.9c-1.2-1.5-1.6-3.4-1.4-5.2c0.2-1.1-0.2-2.1-0.3-3.1c-0.2-1.4-0.8-2.8-0.1-4.2c0.1-0.1,0-0.3,0-0.5
			c0.3-1.3-0.7-2.9,0.9-3.8c0.1-0.1,0.1-0.4,0.2-0.6c0.2-1.2,0-2.5,0.7-3.6c0.2-0.3,0.1-0.7,0.2-1.1c0.2-0.1,0.4-0.2,0.6-0.4
			c0.4-0.3,0.8-0.5,1.2-0.8c-0.2-0.2-0.3-0.4-0.5-0.4c-0.3-0.1-0.6-0.1-1-0.1c0,0.3,0.1,0.5,0.1,0.8c0,0.2,0.1,0.4,0.2,0.6
			c-0.8-0.4-1.6-0.8-2.4-1.1c0.4-0.7,0.8-1.4,1.1-2.1c0.1-0.2,0.3-0.6,0.2-0.8c-0.1-0.2-0.4-0.3-0.7-0.4c-0.3-0.1-0.7-0.2-1-0.4
			c-0.4-0.2-0.7-0.6-1-0.9c0.2-0.8,1-0.3,1.7-0.7c-0.5-0.1-0.8-0.2-1-0.3c-0.2-0.2-0.6-0.7-0.5-0.7c0.7-0.8,0.3-1.6,0.1-2.4
			c-0.1-0.3-0.6-0.7-0.9-0.7c-0.4-0.1-1.8-0.5-1.9-0.9c-0.1-0.2,0.1-0.4,0.2-0.6c0.1,0.6,0.5,0.8,1,0.7c0.2-1.1-0.7-0.5-1.1-0.7
			c-0.7-1.1-1.5-1.8-2.8-2.1c0-0.1,0.1-0.1,0.1-0.2c0.5,0.1,0.9,0.1,1.5,0.2c-0.3-0.4-0.5-0.7-0.7-1c-0.4,0.1-0.8,0.2-1.1,0.1
			c-1-0.3-2.2-0.1-3.1-0.9c-0.1-0.1-0.3,0-0.5,0.1c-1.4,0.9-2.6-0.2-3.9-0.3c-0.1,0-0.2-0.3-0.3-0.5c-0.3,0.1-0.5,0.3-0.9,0.4
			c0.1-0.2,0.1-0.4,0.1-0.4c-0.4-0.1-0.7-0.2-1.3-0.4c-1,0.4-2,1.2-2.3,2.6c0,0.1-0.2,0.2-0.3,0.3c-0.4,0.7-0.9,1.4-1.3,2.2
			c-0.4,1-0.7,2.2-1.1,3.5c-0.3-0.4-0.4-0.5-0.5-0.7c-0.2,0.1-0.4,0.3-0.6,0.4c0,0-0.1-0.1-0.1-0.1c0.3-0.6,0.5-1.3,0.9-2.1
			c-0.5,0.2-0.8,0.3-1,0.5c-0.8,1.1-1.6,2.3-2.4,3.5c1.4,0.5,0.8,1.3,0.6,1.9c-0.1,0.4-0.4,0.7-0.6,1c-0.1,0-0.2-0.1-0.2-0.1
			c1.4,6,2.2,12,1.9,18.3c-1.2-1-1.5-2.4-1.9-3.7c0.3-0.1,0.5-0.2,1-0.3c-1.4-1.2-0.3-2.7-0.7-4c-0.3,0.1-0.4,0.2-0.6,0.3
			c-0.1-0.3-0.1-0.6-0.2-0.9c-0.1-1.1-0.8-2-1.8-2.4c-0.4-0.2-0.8-0.5-1.2-0.7c-0.2-0.2-0.8-0.2-0.8-0.4c-0.1-0.6,0-1.2,0-1.6
			c-0.3-0.5-0.6-0.9-0.5-1.2c0.1-0.6-0.2-0.9-0.7-1.1c-0.6-0.3-0.8-0.7-0.5-1.1c-0.4-0.7-0.8-1.3-1-2c-0.2-0.6,0.1-1.2,0-1.8
			c-0.2-0.8-0.1-1.9-1.3-2.2c-0.6-0.2-0.6-0.6-0.1-1c0.7-0.7,1.3-1.4,2.2-2.3c-0.5-0.1-0.9-0.2-1.3-0.3c-0.3-0.1-0.6-0.1-0.8-0.3
			c-0.6-0.6-0.5-1.7,0.1-2.4c0.3-0.4,0.6-0.9,0.7-1.4c0.1-0.3-0.2-0.6-0.3-0.9c0.5-0.1,0.7-0.1,1.2-0.2c-0.8-0.8-0.6-1.2,0.2-1.6
			c0.4-0.2,0.5-1,0.8-1.5c0.2-0.5,0.4-0.9,0.6-1.4c0,0,0-0.1,0-0.2c-0.1-0.1-0.3-0.3-0.5-0.6c0.4-0.2,0.7-0.5,0.9-0.5
			c0.8,0.1,0.9-0.4,1.1-0.8c0.1-0.2,0.3-0.6,0.5-0.6c0.5-0.1,1.1,0,1.6,0c0.5-1,1.1-2,1.6-2.9c0.1-0.2,0-0.4-0.1-0.6
			c-0.5-1.1-0.5-1.2,0.6-1.8c0.8-0.5,1.5-0.9,2.3-1.4c0.2-0.1,0.3-0.4,0.3-0.6c0-0.6,0-1,0.7-0.8c0.1,0,0.3-0.1,0.5-0.2
			c0.3-0.2,0.6-0.4,0.9-0.4c0.5-0.1,1.1-0.1,1.6-0.2c0.1-1.2,0.7-1.7,2-1.8c1-0.1,2.1-0.3,3.1-0.6c0.2,0,0.3-0.5,0.4-0.7
			c0.1-0.3,0.2-0.7,0.4-0.9c0.5-0.6,1.2-0.4,1.8-0.1c0.6,0.4,1.1,0.6,1.5,0.2c0.4,0.1,0.8,0.3,1,0.3c1.5-0.4,3-0.8,4.6-1.3
			c0.1,0,0.2-0.2,0.3-0.3c0.2-0.4,0.5-0.8,0.7-1.2c0.1,0.1,0.2,0.1,0.3,0.2c-0.1-0.2-0.3-0.4-0.4-0.6c0.1,0,0.2,0,0.3,0
			c0.2,0.3,0.4,0.7,0.5,1c0.1,0.2,0.2,0.5,0.3,0.5c0.2,0,0.4-0.1,0.6-0.2c0.2-0.1,0.3-0.3,0.5-0.5c-0.1-0.1-0.2-0.2-0.3-0.3
			c0.3-0.2,0.5-0.4,0.8-0.6c0.1,0,0.1,0,0.2,0c0.9,0.3,1.9,0.6,2.8,0.8c0.1,0,0.2-0.1,0.3-0.1c0.4-0.1,0.8-0.3,1.2-0.4
			c0.1,0,0.1-0.2,0.2-0.3c0.3,0,0.7,0,1,0c-0.4,0.5-0.7,0.9-1.1,1.4c0.3,0.4,0.7,1,0.9,1.4c0.2-0.2,0.5-0.7,0.9-0.8
			c0.3-0.1,0.8,0.4,1.2-0.1c0.1,0.2,0.4,0.4,0.4,0.5c-0.2,0.8,0.4,0.7,0.8,0.7c0,0.3-0.1,0.5-0.1,0.6c1.1,0.4,2.1,0.8,3.1,1.2
			c0.1,0,0.3,0.1,0.4,0c0.4,0,0.8-0.1,1.1-0.1c1.1-0.1,2.3,0.3,3.4,0c0.7-0.2,1.5,0,1.9,0.8c0.8,1.7,2.4,2.4,3.9,3.4
			c0.8,0.6,1.6,1.1,2.4,1.7c0.1,0.1,0.1,0.3,0.1,0.4c0,0.1,0.1,0.4,0.2,0.4c0.7,0.3,0.5,0.7,0.4,1.3c0,0.3,0.2,0.9,0.3,1
			c1.3,0,1.8,0.7,2.1,1.8c0,0.1,0.2,0.2,0.3,0.3c-0.1,0.2-0.2,0.4-0.4,0.6c0.3,0.2,0.5,0.5,0.8,0.6c0.8,0.4,0.9,0.9,0.3,1.6
			c-0.2,0.3,0.1,1.5,0.5,1.7c0.4,0.3,0.7,0.1,0.9-0.4c0.1-0.1,0.6-0.2,0.7-0.1c0.1,0.2,0.2,0.6,0.1,0.7c-0.5,0.3-0.7,0.8-0.9,1.2
			c0.4,0.8,1.1,1.6,0.2,2.6c-0.3,0.3-0.3,0.9,0.2,1.3c0.5,0.4,0.8,0.9,1.2,1.4c-0.9,0.5-0.8,1.1-0.6,1.8c0.2,0.7,0.2,1.5,0,2.2
			c-0.2,0.6-0.1,1.2,0,1.8c0.1,0.8,0,1.6-0.1,2.4c0,0.1-0.1,0.2-0.1,0.2c-0.9,0.3-1.1,1-1.2,1.8c0,0.1-0.2,0.3-0.3,0.4
			c-0.3,0.5-0.7,1.1-0.9,1.6c-0.1,0.5-0.3,0.8-0.8,0.9c-0.3,0.1-0.5,0.4-0.6,0.7c-0.1,0.4,0,0.8,0,1.3c0.4,3.3,0.1,6.4-0.7,9.6
			c-0.4,1.4-1.1,2.6-2.4,3.3c-0.4,0.2-0.6,0.5-0.6,1c-0.3,2.9-0.4,5.8-1.4,8.6c-0.2,0.5-0.1,0.9,0.4,1.2c2.2,1.8,3.7,4,4.7,6.6
			c0.4,1,1,2,2.2,2.4c3.1,1.1,6.3,2.1,9.4,3.2"/>
		<path d="M127,150c0.1,0.1,0.1,0.2,0.2,0.3c-0.3,0.2-0.5,0.3-0.8,0.5c-0.6,0.4-1.2,2-0.9,2.4c0.3,0.4,1.4,0.4,2.2,0
			c1.4-0.7,2.2-2,3-3.2c0.6-0.9,1.2-2,2.1-2.6c2-1.4,3.7-3,5.2-4.9c0.6-0.7,0.9-0.7,1.3,0.1c0.1,0.2,0.2,0.5,0.3,0.7
			c0.4,1.3,0.7,2.6,1.1,4c0.1,0.3,0,0.8-0.2,0.9c-0.5,0.5-0.6,1-0.4,1.6c0.3-0.2,0.7-0.4,1-0.7c0.2-0.2,0.4-0.6,0.3-0.8
			c-0.5-1.8-0.9-3.7-1.6-5.5c-0.3-0.9-0.2-1.6,0.1-2.4c0.6-1.6,1.2-3.1,1.8-4.7c0.2-0.7,0.3-1.4,0.5-2c-0.3,0-0.5,0.1-0.6,0.3
			c-2.9,3.7-5.8,7.3-8.7,11c-0.4,0.5-0.7,0.9-1.4,0.9c-0.8,0-1.5,0.2-2.3,0.3c0,0.1,0,0.2,0,0.2c0.2,0,0.3,0.1,0.6,0.2
			c-1.3,1.1-2.6,2.1-3.8,3.2c-1.3-1.4-2.5-2.8-3.8-4.1c-0.2-0.2-0.4-0.5-0.7-0.6c-0.8-0.4-1.7-0.7-2.5-1.1c-0.6-0.3-1.2-0.4-1.5,0.3
			c-0.1,0.3,0.3,0.8,0.6,1.2c0.3,0.4,0.9,0.6,0.9,1c0.2,1.4,1,2.4,1.6,3.6c0.2,0.4,0.2,1,0.3,1.6c-0.5-0.1-0.7-0.1-1-0.2
			c1.6,1.7,2.5,1.7,4.2,0.5c0.3-0.2,0.5-0.5,0.8-0.6C125.6,150.7,126.3,150.4,127,150z"/>
		<path d="M105,125.4c0.2,1.5,0.2,2.9,0.4,4.3c0.6,4,3.3,6.9,5.6,10c0.3,0.4,1.2,0.8,1.7,0.7c0.6-0.1,1.1-0.1,1.5,0.3
			c0.7,0.5,1.5,0.9,2.2,1.4c0-0.1,0.1-0.1,0.1-0.2c-0.6-0.4-1.2-0.8-1.8-1.2c-0.2-0.1-0.4-0.3-0.5-0.5c-0.3-0.5-0.5-1-0.8-1.5
			c-0.4-0.6-0.9-1.2-1.3-1.9c-0.9-1.4-1.8-2.8-2.7-4.2c-0.9-1.4-1.7-2.8-2.5-4.2C106.5,127.4,106.3,126.2,105,125.4z"/>
		<path d="M129.3,103.9c0.4,2.7,2.7,3.2,4.5,4.4c1-1.3,0.9-1.7-0.4-2.2c0.7-0.6,1.3-0.9-0.1-1.6
			C131.9,103.7,130.7,103.5,129.3,103.9z"/>
		<path d="M135.5,102.8c-1,0-2,0.3-2.6-0.1c-0.7-0.3-1-1.3-1.7-2.2c-0.4,0.4-1,0.8-1.4,1.3c-0.3,0.4,0.1,1.3,0.7,1.4
			c1.4,0.1,2.8,0,4.2,0C134.9,103.3,135.2,103,135.5,102.8z"/>
		<path d="M110.8,132.6c0.1-0.1,0.1-0.1,0.2-0.2c-1.1-1.2-2.2-2.5-3.2-3.7C108.5,130.2,109.4,131.6,110.8,132.6z"/>
		<path d="M122.5,54.5c0,0.1,0,0.2,0.1,0.3c0.2,0,0.4,0,0.6,0.1c1.1,0.7,1.1,0.7,1.2-0.7C123.7,54.3,123.1,54.4,122.5,54.5z"/>
		<path d="M103.4,121.8c0.5-0.1,0.9-0.1,1.2-0.2c-0.5-0.3-0.9-0.6-1.5-0.9C103.2,121.1,103.3,121.5,103.4,121.8z"/>
		<path d="M113.4,135c0.1-0.1,0.1-0.1,0.2-0.2c-0.6-0.6-1.2-1.1-1.8-1.7c0,0,0,0,0,0C112.3,133.8,112.9,134.4,113.4,135z"/>
		<path fill="#FFFFFF" d="M130.7,159c0.1-0.8,0.5-1.3,1.3-1.6c0.3-0.1,0.4-0.5,0.6-0.8c0.3-0.5,0.4-1.1,0.8-1.4
			c1.2-0.9,2.5-1.8,3.8-2.7c-0.8,2.2-1.5,4.3-2.2,6.4C133.5,159,132.1,159,130.7,159z"/>
		<path fill="#FFFFFF" d="M117.7,159c0.4-1.7-0.4-3.3-0.8-4.9c0.1,0,0.2-0.1,0.3-0.1c0.5,1.7,1,3.3,1.6,5
			C118.3,159,118,159,117.7,159z"/>
		<path fill="#FFFFFF" d="M122.6,53.5c-0.2,0.2-0.5,0.4-0.8,0.6c0.1,0.1,0.2,0.2,0.3,0.3c-0.2,0.2-0.3,0.4-0.5,0.5
			c-0.2,0.1-0.4,0.2-0.6,0.2c-0.1,0-0.2-0.3-0.3-0.5c-0.2-0.3-0.4-0.7-0.5-1C121,53.5,121.8,53.5,122.6,53.5z"/>
		<path fill="#FFFFFF" d="M127.3,53.5c-0.1,0.1-0.1,0.3-0.2,0.3c-0.4,0.2-0.8,0.3-1.2,0.4c-0.1,0-0.2,0.1-0.3,0.1
			c-0.9-0.3-1.9-0.6-2.8-0.8C124.3,53.5,125.8,53.5,127.3,53.5z"/>
		<path fill="#FFFFFF" d="M127,150c-0.7,0.4-1.4,0.8-2.1,1.2c-0.3,0.2-0.5,0.4-0.8,0.6c-1.7,1.3-2.6,1.2-4.2-0.5
			c0.3,0.1,0.6,0.1,1,0.2c-0.1-0.6-0.1-1.2-0.3-1.6c-0.6-1.2-1.4-2.2-1.6-3.6c-0.1-0.4-0.7-0.6-0.9-1c-0.3-0.4-0.7-0.9-0.6-1.2
			c0.2-0.7,0.9-0.6,1.5-0.3c0.8,0.4,1.7,0.7,2.5,1.1c0.3,0.1,0.5,0.4,0.7,0.6c1.2,1.3,2.4,2.7,3.8,4.1c1.2-1,2.4-2,3.8-3.2
			c-0.2-0.1-0.4-0.1-0.6-0.2c0-0.1,0-0.2,0-0.2c0.8-0.1,1.5-0.3,2.3-0.3c0.7,0,1.1-0.4,1.4-0.9c2.9-3.7,5.8-7.3,8.7-11
			c0.1-0.1,0.3-0.2,0.6-0.3c-0.2,0.7-0.2,1.4-0.5,2c-0.6,1.6-1.2,3.2-1.8,4.7c-0.3,0.8-0.4,1.5-0.1,2.4c0.6,1.8,1.1,3.7,1.6,5.5
			c0.1,0.2-0.1,0.6-0.3,0.8c-0.3,0.3-0.7,0.5-1,0.7c-0.2-0.6-0.1-1.1,0.4-1.6c0.2-0.2,0.2-0.6,0.2-0.9c-0.3-1.3-0.7-2.7-1.1-4
			c-0.1-0.2-0.2-0.5-0.3-0.7c-0.4-0.8-0.8-0.8-1.3-0.1c-1.4,1.9-3.2,3.5-5.2,4.9c-0.9,0.6-1.4,1.7-2.1,2.6c-0.9,1.2-1.6,2.5-3,3.2
			c-0.8,0.4-1.9,0.3-2.2,0c-0.3-0.4,0.3-2,0.9-2.4c0.3-0.2,0.5-0.3,0.8-0.5C127.1,150.2,127.1,150.1,127,150z"/>
		<path fill="#FFFFFF" d="M105,125.4c1.3,0.8,1.5,2,2,2.9c0.8,1.4,1.6,2.8,2.5,4.2c0.9,1.4,1.8,2.8,2.7,4.2c0.4,0.6,0.9,1.2,1.3,1.9
			c0.3,0.5,0.5,1,0.8,1.5c0.1,0.2,0.3,0.4,0.5,0.5c0.6,0.4,1.2,0.8,1.8,1.2c0,0.1-0.1,0.1-0.1,0.2c-0.7-0.5-1.5-0.9-2.2-1.4
			c-0.5-0.3-0.9-0.4-1.5-0.3c-0.5,0.1-1.4-0.2-1.7-0.7c-2.3-3.1-5-6-5.6-10C105.2,128.3,105.1,127,105,125.4z"/>
		<path fill="#FFFFFF" d="M129.3,103.9c1.4-0.3,2.6-0.2,4,0.5c1.4,0.7,0.8,1,0.1,1.6c1.3,0.5,1.4,0.9,0.4,2.2
			C132,107.1,129.7,106.6,129.3,103.9z"/>
		<path fill="#FFFFFF" d="M135.5,102.8c-0.3,0.2-0.6,0.5-0.9,0.5c-1.4,0-2.8,0.1-4.2,0c-0.6,0-1-0.9-0.7-1.4c0.4-0.6,1-1,1.4-1.3
			c0.6,0.9,1,1.8,1.7,2.2C133.6,103,134.5,102.8,135.5,102.8z"/>
		<path fill="#FFFFFF" d="M110.8,132.6c-1.4-0.9-2.3-2.4-3-3.9c1.1,1.2,2.2,2.5,3.2,3.7C110.9,132.4,110.9,132.5,110.8,132.6z"/>
		<path fill="#FFFFFF" d="M125.7,94.1c-0.1-0.2-0.1-0.4-0.2-0.6c-0.1-0.3-0.1-0.5-0.1-0.8c0.3,0,0.7,0,1,0.1
			c0.2,0.1,0.3,0.3,0.5,0.4C126.4,93.5,126,93.8,125.7,94.1C125.7,94.1,125.7,94.1,125.7,94.1z"/>
		<path fill="#FFFFFF" d="M122.5,54.5c0.6-0.1,1.2-0.2,1.8-0.3c-0.1,1.3-0.1,1.3-1.2,0.7c-0.2-0.1-0.4-0.1-0.6-0.1
			C122.6,54.7,122.5,54.6,122.5,54.5z"/>
		<path fill="#FFFFFF" d="M103.4,121.8c-0.1-0.2-0.2-0.6-0.3-1.1c0.6,0.3,1.1,0.6,1.5,0.9C104.2,121.6,103.9,121.7,103.4,121.8z"/>
		<path fill="#FFFFFF" d="M113.4,135c-0.5-0.6-1.1-1.2-1.6-1.8c0,0,0,0,0,0c0.6,0.6,1.2,1.1,1.8,1.7
			C113.5,134.9,113.5,135,113.4,135z"/>
		<path fill="#FFFFFF" d="M119.4,82c0.3,0.2,1.2-0.4,1.1,0.7C119.8,82.8,119.5,82.6,119.4,82L119.4,82z"/>
		<path d="M109.9,96.3c-0.1,0.2-0.1,0.4-0.2,0.6c0.1,0,0.1,0,0.2,0c1.3-0.8,2.7-0.4,4-0.3c1,0.1,2,0.3,3,0.5c0,0,0,0.2,0,0.2
			c0.5,0.4,1,0.7,1.4,1c0.1,0.1,0.2,0.4,0.1,0.5c-0.2,0.2-0.4,0.5-0.7,0.6c-2.4,0.6-4.7,0.1-7.1-0.2c-1.1-0.1-2.1-0.5-3.2-0.5
			c-1.3,0-2.6,0.2-4,0.3c-0.8,0.1-1.6,0.2-2.4,0.2c-0.3,0-0.8-0.5-0.8-0.6c0.1-0.4,0.4-0.8,0.7-1c1.2-0.5,2.4-1,3.7-1.4
			c0.2-0.1,0.4-0.1,0.4-0.2c0.4-1,1.2-0.8,2-0.9c1.1,0,1.1-0.1,1.4,1c-0.4,0-0.7,0.1-1.1,0.1c0,0.1,0,0.2,0,0.2
			C108.3,96.8,109.1,96.8,109.9,96.3z"/>
		<path d="M112.5,102.3c-0.4,1.6-1.3,2.3-2.4,2.3c-1.1,0-1.6-0.6-2.1-2.6c-0.5,0.3-1,0.5-1.5,0.8c-0.3,0.2-0.7,0.4-1,0.6
			c-0.9,0.5-1.2,0.3-1.6-0.6c0-0.1-0.2-0.2-0.4-0.5c0.9-0.3,1.7-0.6,2.5-0.7c1.2-0.2,2.4-0.3,3.6-0.6c1.5-0.3,2.9-0.1,4.1,0.8
			c0.2,0.1,0.2,0.4,0.3,0.7c-0.2,0-0.5,0.1-0.7,0.1C113,102.5,112.8,102.4,112.5,102.3z"/>
		<path d="M120.4,122.9c0.1-1,0.3-2,1.5-2.4c0.2-0.1,0.6,0.2,0.7,0.4c0.1,0.6,0.2,1.2,0.2,1.7c0.1,0.5,0,1.1,0.5,1.5
			c0.3,0.2,0.3,0.6-0.2,0.8C122,125.2,120.5,124,120.4,122.9z"/>
		<path d="M115.2,104.4c-1.6,0.3-3.1,1-4.7,0.8c0-0.1,0-0.2,0-0.2c1.6-0.3,3.1-0.6,4.7-0.9C115.1,104.1,115.1,104.3,115.2,104.4z"/>
		<path d="M117.6,127.6c-1.4,0.2-2.8,0.4-4.2,0.7c0-0.1-0.1-0.3-0.1-0.4c0.2-0.1,0.5-0.4,0.7-0.4c1,0.2,1.9,0.1,2.8-0.2
			c0.2-0.1,0.5,0,0.8,0C117.6,127.4,117.6,127.5,117.6,127.6z"/>
	</g>
	<path d="M125,228.1c-56.9,0-103.1-46.3-103.1-103.1S68.1,21.9,125,21.9S228.1,68.1,228.1,125S181.9,228.1,125,228.1z M125,38.2
		c-47.9,0-86.8,38.9-86.8,86.8s38.9,86.8,86.8,86.8s86.8-38.9,86.8-86.8S172.9,38.2,125,38.2z"/>
	<polygon points="195.4,188.6 151.9,216.1 97.3,220 60.5,188.6 35.6,157 214.4,157 	"/>
	<path id="SVGID_x5F_1_x5F_" fill="none" d="M33.5,162.8c44.6,91.7,157.5,65.1,180.9,0"/>
	<text>	<textPath  xlink:href="#SVGID_x5F_1_x5F_" startOffset="4.321%">
<tspan  fill="#FFFFFF" font-family="'Times-Bold'" font-size="16.2803">IN GAMBINO WE TRUST</tspan>	</textPath>
</text>
</g>
</svg>
