<?xml version="1.0" encoding="utf-8"?>
<!-- Generator: Adobe Illustrator 18.0.0, SVG Export Plug-In . SVG Version: 6.00 Build 0)  -->
<!DOCTYPE svg PUBLIC "-//W3C//DTD SVG 1.1//EN" "http://www.w3.org/Graphics/SVG/1.1/DTD/svg11.dtd">
<svg version="1.1" id="Layer_1" xmlns="http://www.w3.org/2000/svg" xmlns:xlink="http://www.w3.org/1999/xlink" x="0px" y="0px"
	 viewBox="0 0 250 250" enable-background="new 0 0 250 250" xml:space="preserve">
<g>
	<g>
		<path fill="#FFFFFF" d="M80.5,104.9l-21.1-9.1c-5.2-2.7-10.5-0.5-13.2,4.8c-2.7,5.2-1.1,12,4.1,14.7L76.2,137"/>
		<path d="M74.5,139l-25.6-21.6c-6.1-3.3-8.4-11.4-4.9-18.1c1.6-3.2,4.1-5.5,7.1-6.6c3.1-1.1,6.5-0.9,9.6,0.7l21,9.1l-2.1,4.8
			l-21.3-9.2c-1.9-0.9-3.7-1.1-5.4-0.5c-1.7,0.6-3.2,2.1-4.2,4.1c-2.1,4.1-0.8,9.2,2.9,11.1l0.3,0.1l26.1,22L74.5,139z"/>
	</g>
	<g>
		<path fill="#FFFFFF" d="M175.9,71.2L188.4,215l-0.1,0c0,9-7.4,16.3-16.4,16.3c-9,0-16.3-7.4-16.2-16.4c0,9-7.4,16.3-16.4,16.3
			c-9,0-16.3-7.4-16.2-16.4c0,9-7.4,16.3-16.4,16.3c-9,0-16.3-7.4-16.2-16.4c0,9-7.4,16.3-16.4,16.3c-9,0-16.3-7.4-16.2-16.4
			L71.4,70.8c0.1-28.9,23.6-52.1,52.5-52S176,42.4,175.9,71.2z"/>
		<path d="M171.9,233.9c-6.9,0-13-3.8-16.3-9.4c-3.3,5.6-9.4,9.3-16.3,9.3s-13-3.8-16.3-9.4c-3.3,5.6-9.4,9.3-16.3,9.3
			c-6.9,0-13-3.8-16.3-9.4c-3.3,5.6-9.4,9.3-16.3,9.3c-10.4,0-18.9-8.6-18.9-19l0-0.2L68.8,70.7C69,40.5,93.7,16,123.9,16.2
			c30.2,0.1,54.7,24.8,54.7,55l12.7,146.5l-0.5,0C189.4,226.8,181.4,233.9,171.9,233.9z M158.3,214.8c0,7.5,6.1,13.7,13.6,13.7
			s13.7-6.1,13.7-13.6l0-1.1L173.3,71.4l0-0.1c0.1-27.4-22.1-49.7-49.4-49.8c-27.4-0.1-49.7,22.1-49.8,49.4l0,0.2L60.4,214.6
			c0,7.5,6.1,13.6,13.6,13.6c7.5,0,13.7-6.1,13.7-13.6l5.3,0c0,7.5,6.1,13.7,13.6,13.7c7.5,0,13.7-6.1,13.7-13.6l5.3,0
			c0,7.5,6.1,13.7,13.6,13.7c7.5,0,13.7-6.1,13.7-13.6L158.3,214.8z"/>
	</g>
	<circle cx="105.8" cy="71.5" r="8.7"/>
	<circle cx="130.8" cy="69.5" r="8.7"/>
	<circle cx="114.3" cy="112.4" r="19.3"/>
	<g>
		<path fill="#FFFFFF" d="M169.5,104.1l21.2-8.9c5.3-2.6,10.5-0.4,13.1,4.9c2.6,5.2,1.1,12-4.2,14.6l-26,21.6"/>
		<path d="M175.3,138.3l-3.4-4.1l26.3-21.8l0.3-0.1c3.7-1.9,5.1-6.9,3-11.1c-2.1-4.1-5.8-5.6-9.6-3.7l-0.2,0.1l-21.2,8.9l-2-4.9
			l21.1-8.9c6.4-3.2,13.2-0.7,16.6,6.1c3.4,6.7,1.1,14.7-5.1,18L175.3,138.3z"/>
	</g>
</g>
</svg>
