<?xml version="1.0" encoding="utf-8"?>
<!-- Generator: Adobe Illustrator 18.0.0, SVG Export Plug-In . SVG Version: 6.00 Build 0)  -->
<!DOCTYPE svg PUBLIC "-//W3C//DTD SVG 1.1//EN" "http://www.w3.org/Graphics/SVG/1.1/DTD/svg11.dtd">
<svg version="1.1" id="Layer_1" xmlns="http://www.w3.org/2000/svg" xmlns:xlink="http://www.w3.org/1999/xlink" x="0px" y="0px"
	 viewBox="0 0 250 250" enable-background="new 0 0 250 250" xml:space="preserve">
<g>
	<path d="M79.6,139.5c0-6.3,19.7-2.6,21.3-8.3c7.7-29,14.3-60.2,44.6-60.2c36.4,0,65.9,30.7,65.9,68.5S181.9,208,145.5,208
		S79.6,177.3,79.6,139.5z"/>
	<path d="M154.3,205c-5.8,6.1-30.4,0.9-41.1-0.9C98.9,201.7,82,192.6,67,178.2c-26-25.1-36-56.9-22.3-71.1s45.9-5.4,71.9,19.7
		S168,190.8,154.3,205z"/>
	<path d="M96.7,66.8C93.9,81.4,92,111,92,145.3c0,48.6,3.9,88.1,8.7,88.1s8.7-39.4,8.7-88.1c0-34.4-1.9-64.2-4.8-78.7L96.7,66.8z"/>
	<path d="M91.6,39.7c0,8.3,1.7,20.4,8.5,20.4c6.8,0,8.3-11.6,8.3-19.8S97.6,12.2,97,17.5C95.5,30.5,91.6,39.7,91.6,39.7z"/>
	<circle fill="#FFFFFF" cx="145.4" cy="96.4" r="10"/>
	<circle fill="#FFFFFF" cx="179.5" cy="113" r="10"/>
	<circle fill="#FFFFFF" cx="187.9" cy="150.2" r="10"/>
	<circle fill="#FFFFFF" cx="166.7" cy="181.4" r="10"/>
</g>
</svg>
