<?xml version="1.0" encoding="utf-8"?>
<!-- Generator: Adobe Illustrator 18.0.0, SVG Export Plug-In . SVG Version: 6.00 Build 0)  -->
<!DOCTYPE svg PUBLIC "-//W3C//DTD SVG 1.1//EN" "http://www.w3.org/Graphics/SVG/1.1/DTD/svg11.dtd">
<svg version="1.1" id="Layer_1" xmlns="http://www.w3.org/2000/svg" xmlns:xlink="http://www.w3.org/1999/xlink" x="0px" y="0px"
	 viewBox="0 0 612 792" enable-background="new 0 0 612 792" xml:space="preserve">
<g>
	<path fill="#172A53" d="M273.2,127.2c0,43.3,0,86.7,0,131c37.7,0,75.2,0,113.8,0c0,24,0,47.5,0,74.4c9.3-7.3,16.4-12.5,23-18.4
		c6.6-6.1,12-14,19.3-19.3c3.2-2.4,9.5-0.5,16.6-0.5c5.4-7.6,12.2-16.9,19.1-26.4c3.9,4.4,7.3,11,12.7,13.5c6.1,2.9,14,2.2,21.5,3.2
		c2.7-11.3,5.9-20.3,19.8-15.9c1.2,0.5,4.2-2,5.1-3.7c5.4-8.8,13.2-7.8,18.4-2.2c6.9,7.6,14,8.6,22.8,6.9c1.5-0.2,3.4,1,5.9,1.7
		c-3.9,7.3-1.2,10,4.7,15.7c5.6,5.4,5.4,18.8,4.9,28.9c-0.2,7.3-4.9,14.4-8.1,23.3c-19.3-14.9-37.9-29.4-57.5-44.6
		c-2.7,14.2-4.9,27.2-7.6,40.4c-0.2,1.5-1,3.2-2,3.9c-13.5,9.8-16.4,29.6-35.3,35.5c-5.9,1.7-8.8,12.7-13.2,20.1
		c-4.2-3.2-8.3-6.4-14.4-11c-3.4,8.1-6.1,15.4-9.3,22.5c-5.1,10.8-10,22-16.4,32.1c-6.1,10-22.3,7.6-29.4-2.7
		c-3.9-5.6-9.3-10-15.7-16.9c-2.7,8.3-3.7,13.7-5.9,18.4c-5.9,12.5-12.5,24.5-18.8,36.7c-2.4,4.7-5.4,9.1-7.6,13.7
		c-3.7,7.1-5.9,14.9-10.5,21.1c-10.3,14-21.5,27.2-33.3,42.1c5.1,3.9,8.1,5.9,10.8,8.1c-7.8,11.3-12.5,25-28.4,29.1
		c-0.7-1-1.7-2.2-2.7-3.4c-1-1.2-1.7-2.2-2.9-3.7c-6.6,4.2-12.5,9.1-19.3,11.3c-5.4,1.7-12,0.5-18.6,0.5c2.7,14.4-9.8,14-20.8,16.2
		c-7.3,1.5-14.7,4.2-23,6.9c-3.9-3.4-8.8-7.8-13.7-12c-7.6,6.1-14.9,11.8-22.3,17.6c-5.4,0-10.8,0-16.4,0c-6.6-5.1-14-9.3-19.3-15.7
		c-6.1-7.1-10-15.9-14.9-24.2c1.5-2.4,3.2-4.9,4.7-7.1c-7.6-2.4-15.9-2.7-20.6-6.9c-11.5-10.3-21.1-22.5-29.4-35.5
		c-3.7-5.9-9.5-11.5-10.3-17.6c-1.5-13.2-8.8-21.5-17.1-30.1c0-1.5,0-3.2,0-4.7c1.7-1.5,4.7-2.7,4.9-4.4c1.5-9.5,2.2-19.1,3.2-28.2
		c8.6-1.7,17.4-2.9,26.2-5.1c2.2-0.5,4.7-4.4,4.9-7.1c1-9.5,2.9-17.4,14.9-15.7c2-12.7-8.8-25.9,4.7-36c0.2-0.2,0-0.7,0-1.2
		c4.2-8.1,8.6-16.2,12.7-24.2c10.5,5.6,17.9,10.5,13.5,22.8c17.6-10.5,18.8-14,12.5-25.7c2.7-4.2,6.4-7.3,6.6-11
		c0.7-13.5,5.6-19.6,15.9-20.3c6.6-7.6,12-13.5,17.9-20.3c3.7,4.9,6.1,8.1,9.1,12c6.6-4.2,13.7-7.6,19.3-12.2
		c9.5-8.1,17.1-19.3,27.9-25.2c7.3-3.9,8.6-9.5,10.3-14.9c2.7-8.6,2.9-17.6,5.1-26.4c1.5-6.4,4.9-12.2,6.6-18.4
		c3.2-10,4.4-21.1,9.1-30.6c7.3-15.4,7.1-30.6,0.7-45.5c-2.7-6.4,0-8.3,4.7-10.3c2.2-1,4.4-1.7,6.9-2.7
		C270,127.2,271.5,127.2,273.2,127.2z"/>
	<g enable-background="new    ">
		<path fill="#172A53" d="M146.6,407.7l-22.1-93.1H147l7,38.4c2.1,11.1,4,23.1,5.5,32.5h0.3c1.5-10.1,3.7-21.3,6.1-32.7l7.9-38.1
			h22.4l7.5,39.2c2.1,10.9,3.6,20.9,5,31.2h0.3c1.4-10.4,3.5-21.3,5.4-32.3l7.6-38.1h21.4l-24,93.1h-22.8l-7.9-40.1
			c-1.8-9.4-3.3-18.1-4.4-28.7h-0.3c-1.7,10.5-3.2,19.3-5.4,28.7l-8.8,40.1H146.6z"/>
		<path fill="#172A53" d="M276.8,407.7L247,314.6H270l11.3,39.4c3.2,11.1,6.1,21.7,8.3,33.3h0.4c2.3-11.2,5.2-22.2,8.4-32.9
			l11.9-39.8h22.4l-31.4,93.1H276.8z"/>
		<path fill="#172A53" d="M363.7,314.6v53.6c0,16,6.1,24.2,16.9,24.2c11.1,0,17.1-7.7,17.1-24.2v-53.6h21v52.2
			c0,28.7-14.5,42.4-38.8,42.4c-23.5,0-37.3-13-37.3-42.7v-51.9H363.7z"/>
	</g>
	<g enable-background="new    ">
		<path fill="none" stroke="#172A53" stroke-width="10" stroke-miterlimit="10" d="M146.6,407.7l-22.1-93.1H147l7,38.4
			c2.1,11.1,4,23.1,5.5,32.5h0.3c1.5-10.1,3.7-21.3,6.1-32.7l7.9-38.1h22.4l7.5,39.2c2.1,10.9,3.6,20.9,5,31.2h0.3
			c1.4-10.4,3.5-21.3,5.4-32.3l7.6-38.1h21.4l-24,93.1h-22.8l-7.9-40.1c-1.8-9.4-3.3-18.1-4.4-28.7h-0.3
			c-1.7,10.5-3.2,19.3-5.4,28.7l-8.8,40.1H146.6z"/>
		<path fill="none" stroke="#172A53" stroke-width="10" stroke-miterlimit="10" d="M276.8,407.7L247,314.6H270l11.3,39.4
			c3.2,11.1,6.1,21.7,8.3,33.3h0.4c2.3-11.2,5.2-22.2,8.4-32.9l11.9-39.8h22.4l-31.4,93.1H276.8z"/>
		<path fill="none" stroke="#172A53" stroke-width="10" stroke-miterlimit="10" d="M363.7,314.6v53.6c0,16,6.1,24.2,16.9,24.2
			c11.1,0,17.1-7.7,17.1-24.2v-53.6h21v52.2c0,28.7-14.5,42.4-38.8,42.4c-23.5,0-37.3-13-37.3-42.7v-51.9H363.7z"/>
	</g>
	<g enable-background="new    ">
		<path fill="#E9AB22" d="M146.6,407.7l-22.1-93.1H147l7,38.4c2.1,11.1,4,23.1,5.5,32.5h0.3c1.5-10.1,3.7-21.3,6.1-32.7l7.9-38.1
			h22.4l7.5,39.2c2.1,10.9,3.6,20.9,5,31.2h0.3c1.4-10.4,3.5-21.3,5.4-32.3l7.6-38.1h21.4l-24,93.1h-22.8l-7.9-40.1
			c-1.8-9.4-3.3-18.1-4.4-28.7h-0.3c-1.7,10.5-3.2,19.3-5.4,28.7l-8.8,40.1H146.6z"/>
		<path fill="#E9AB22" d="M276.8,407.7L247,314.6H270l11.3,39.4c3.2,11.1,6.1,21.7,8.3,33.3h0.4c2.3-11.2,5.2-22.2,8.4-32.9
			l11.9-39.8h22.4l-31.4,93.1H276.8z"/>
		<path fill="#E9AB22" d="M363.7,314.6v53.6c0,16,6.1,24.2,16.9,24.2c11.1,0,17.1-7.7,17.1-24.2v-53.6h21v52.2
			c0,28.7-14.5,42.4-38.8,42.4c-23.5,0-37.3-13-37.3-42.7v-51.9H363.7z"/>
	</g>
	<g enable-background="new    ">
		<path fill="none" stroke="#E9AB22" stroke-width="5" stroke-miterlimit="10" d="M146.6,407.7l-22.1-93.1H147l7,38.4
			c2.1,11.1,4,23.1,5.5,32.5h0.3c1.5-10.1,3.7-21.3,6.1-32.7l7.9-38.1h22.4l7.5,39.2c2.1,10.9,3.6,20.9,5,31.2h0.3
			c1.4-10.4,3.5-21.3,5.4-32.3l7.6-38.1h21.4l-24,93.1h-22.8l-7.9-40.1c-1.8-9.4-3.3-18.1-4.4-28.7h-0.3
			c-1.7,10.5-3.2,19.3-5.4,28.7l-8.8,40.1H146.6z"/>
		<path fill="none" stroke="#E9AB22" stroke-width="5" stroke-miterlimit="10" d="M276.8,407.7L247,314.6H270l11.3,39.4
			c3.2,11.1,6.1,21.7,8.3,33.3h0.4c2.3-11.2,5.2-22.2,8.4-32.9l11.9-39.8h22.4l-31.4,93.1H276.8z"/>
		<path fill="none" stroke="#E9AB22" stroke-width="5" stroke-miterlimit="10" d="M363.7,314.6v53.6c0,16,6.1,24.2,16.9,24.2
			c11.1,0,17.1-7.7,17.1-24.2v-53.6h21v52.2c0,28.7-14.5,42.4-38.8,42.4c-23.5,0-37.3-13-37.3-42.7v-51.9H363.7z"/>
	</g>
	<g enable-background="new    ">
		<path fill="#172A53" d="M183.3,520.4c-7.5,2.2-21.7,5.2-36,5.2c-19.7,0-33.9-4.3-43.8-12.6c-9.9-8-15.3-20.2-15.2-33.8
			c0.2-30.9,26.2-48.6,61.5-48.6c13.9,0,24.6,2.3,29.9,4.6l-5.1,16.9c-5.9-2.2-13.3-4-25.1-4c-20.3,0-35.7,9.9-35.7,30.1
			c0,19.2,13.9,30.5,33.9,30.5c5.6,0,10.1-0.6,12-1.4v-19.5h-16.6v-16.4h40.1V520.4z"/>
		<path fill="#172A53" d="M202.4,432.8c9-1.2,20.6-1.9,32.9-1.9c20.5,0,33.7,3.2,44.1,9.9c11.2,7.2,18.2,18.6,18.2,35.1
			c0,17.8-7.5,30.1-17.9,37.7c-11.4,8.1-28.6,12-49.7,12c-12.6,0-21.6-0.7-27.7-1.4V432.8z M226.8,508.8c2.1,0.4,5.4,0.4,8.5,0.4
			c22.1,0.1,36.4-10.4,36.4-32.6c0.2-19.3-12.9-29.6-33.9-29.6c-5.4,0-9,0.4-11,0.8V508.8z"/>
		<path fill="#172A53" d="M392.8,522c-4.5,1.9-14.5,4-27.7,4c-37.2,0-56.4-20-56.4-46.6c0-31.8,26.2-49.5,58.8-49.5
			c12.6,0,22.2,2.2,26.5,4.1l-5,16.7c-5-1.8-11.8-3.5-20.5-3.5c-19.3,0-34.4,10.1-34.4,30.8c0,18.6,12.8,30.4,34.5,30.4
			c7.4,0,15.5-1.4,20.3-3L392.8,522z"/>
	</g>
	<g enable-background="new    ">
		<path fill="none" stroke="#172A53" stroke-width="10" stroke-miterlimit="10" d="M183.3,520.4c-7.5,2.2-21.7,5.2-36,5.2
			c-19.7,0-33.9-4.3-43.8-12.6c-9.9-8-15.3-20.2-15.2-33.8c0.2-30.9,26.2-48.6,61.5-48.6c13.9,0,24.6,2.3,29.9,4.6l-5.1,16.9
			c-5.9-2.2-13.3-4-25.1-4c-20.3,0-35.7,9.9-35.7,30.1c0,19.2,13.9,30.5,33.9,30.5c5.6,0,10.1-0.6,12-1.4v-19.5h-16.6v-16.4h40.1
			V520.4z"/>
		<path fill="none" stroke="#172A53" stroke-width="10" stroke-miterlimit="10" d="M202.4,432.8c9-1.2,20.6-1.9,32.9-1.9
			c20.5,0,33.7,3.2,44.1,9.9c11.2,7.2,18.2,18.6,18.2,35.1c0,17.8-7.5,30.1-17.9,37.7c-11.4,8.1-28.6,12-49.7,12
			c-12.6,0-21.6-0.7-27.7-1.4V432.8z M226.8,508.8c2.1,0.4,5.4,0.4,8.5,0.4c22.1,0.1,36.4-10.4,36.4-32.6
			c0.2-19.3-12.9-29.6-33.9-29.6c-5.4,0-9,0.4-11,0.8V508.8z"/>
		<path fill="none" stroke="#172A53" stroke-width="10" stroke-miterlimit="10" d="M392.8,522c-4.5,1.9-14.5,4-27.7,4
			c-37.2,0-56.4-20-56.4-46.6c0-31.8,26.2-49.5,58.8-49.5c12.6,0,22.2,2.2,26.5,4.1l-5,16.7c-5-1.8-11.8-3.5-20.5-3.5
			c-19.3,0-34.4,10.1-34.4,30.8c0,18.6,12.8,30.4,34.5,30.4c7.4,0,15.5-1.4,20.3-3L392.8,522z"/>
	</g>
	<g>
		<circle fill="#172A53" stroke="#172A53" stroke-width="5" stroke-miterlimit="10" cx="242.1" cy="611.7" r="13"/>
		<circle fill="#172A53" stroke="#172A53" stroke-width="5" stroke-miterlimit="10" cx="288.9" cy="596.2" r="13"/>
		<g>
			
				<ellipse transform="matrix(0.9995 3.022274e-02 -3.022274e-02 0.9995 18.5908 -6.0391)" fill="#172A53" stroke="#172A53" stroke-width="5" stroke-miterlimit="10" cx="209.1" cy="612" rx="17.6" ry="52.1"/>
			
				<ellipse transform="matrix(0.8096 -0.587 0.587 0.8096 -279.0374 295.3485)" fill="#172A53" stroke="#172A53" stroke-width="5" stroke-miterlimit="10" cx="315.7" cy="577.8" rx="17.6" ry="52.1"/>
			<path fill="#172A53" stroke="#172A53" stroke-width="5" stroke-miterlimit="10" d="M308,589.9l-81.5,25c-7.8,2.4-16.4-2-18.8-10
				l-5.1-16.9c-4.4-14,3.7-28.9,17.6-33l54.3-16.6c16.9-5.1,34.8,4.4,40.1,21.3l3.7,11.5C320.4,578.9,315.8,587.4,308,589.9z"/>
		</g>
	</g>
	<g>
		<circle fill="#E9AB22" cx="242.1" cy="612.4" r="13"/>
		<circle fill="#E9AB22" cx="288.9" cy="597" r="13"/>
		<g>
			
				<ellipse transform="matrix(0.9995 3.022274e-02 -3.022274e-02 0.9995 18.6148 -6.0405)" fill="#E9AB22" cx="209.1" cy="612.8" rx="17.6" ry="52.1"/>
			
				<ellipse transform="matrix(0.8096 -0.587 0.587 0.8096 -279.4737 295.5208)" fill="#E9AB22" cx="315.8" cy="578.5" rx="17.6" ry="52.1"/>
			<path fill="#E9AB22" d="M308,590.6l-81.5,25c-7.8,2.4-16.4-2-18.8-10l-5.1-16.9c-4.4-14,3.7-28.9,17.6-33l54.3-16.6
				c16.9-5.1,34.8,4.4,40.1,21.3l3.7,11.5C320.4,579.8,315.8,588.2,308,590.6z"/>
		</g>
		<g>
			<path fill="#172A53" d="M245,588.7l-28.4,8.8c-1.2,0.5-2.7-0.2-2.9-1.5l-2-6.6c-0.5-1.2,0.2-2.7,1.5-2.9l28.4-8.8
				c1.2-0.5,2.7,0.2,2.9,1.5l2,6.6C247,586.9,246.3,588.2,245,588.7z"/>
			<path fill="#172A53" d="M227.7,603.3l-8.8-28.4c-0.5-1.2,0.2-2.7,1.5-2.9l6.6-2c1.2-0.5,2.7,0.2,2.9,1.5l8.8,28.4
				c0.5,1.2-0.2,2.7-1.5,2.9l-6.6,2C229.6,605.3,228.2,604.6,227.7,603.3z"/>
		</g>
		<circle fill="#172A53" cx="281" cy="557.1" r="5.9"/>
		<circle fill="#172A53" cx="274.7" cy="571.5" r="5.9"/>
		<circle fill="#172A53" cx="287.4" cy="578.4" r="5.9"/>
		<circle fill="#172A53" cx="293.8" cy="565.4" r="5.9"/>
		
			<ellipse transform="matrix(-0.3174 -0.9483 0.9483 -0.3174 -242.2071 939.7938)" fill="#E9AB22" cx="217.1" cy="557.1" rx="3.7" ry="10"/>
		
			<ellipse transform="matrix(-0.2285 -0.9735 0.9735 -0.2285 -181.5603 931.5863)" fill="#E9AB22" cx="278.3" cy="537.7" rx="3.7" ry="10"/>
	</g>
	<g enable-background="new    ">
		<path fill="#E9AB22" d="M183.3,520.4c-7.5,2.2-21.7,5.2-36,5.2c-19.7,0-33.9-4.3-43.8-12.6c-9.9-8-15.3-20.2-15.2-33.8
			c0.2-30.9,26.2-48.6,61.5-48.6c13.9,0,24.6,2.3,29.9,4.6l-5.1,16.9c-5.9-2.2-13.3-4-25.1-4c-20.3,0-35.7,9.9-35.7,30.1
			c0,19.2,13.9,30.5,33.9,30.5c5.6,0,10.1-0.6,12-1.4v-19.5h-16.6v-16.4h40.1V520.4z"/>
		<path fill="#E9AB22" d="M202.4,432.8c9-1.2,20.6-1.9,32.9-1.9c20.5,0,33.7,3.2,44.1,9.9c11.2,7.2,18.2,18.6,18.2,35.1
			c0,17.8-7.5,30.1-17.9,37.7c-11.4,8.1-28.6,12-49.7,12c-12.6,0-21.6-0.7-27.7-1.4V432.8z M226.8,508.8c2.1,0.4,5.4,0.4,8.5,0.4
			c22.1,0.1,36.4-10.4,36.4-32.6c0.2-19.3-12.9-29.6-33.9-29.6c-5.4,0-9,0.4-11,0.8V508.8z"/>
		<path fill="#E9AB22" d="M392.8,522c-4.5,1.9-14.5,4-27.7,4c-37.2,0-56.4-20-56.4-46.6c0-31.8,26.2-49.5,58.8-49.5
			c12.6,0,22.2,2.2,26.5,4.1l-5,16.7c-5-1.8-11.8-3.5-20.5-3.5c-19.3,0-34.4,10.1-34.4,30.8c0,18.6,12.8,30.4,34.5,30.4
			c7.4,0,15.5-1.4,20.3-3L392.8,522z"/>
	</g>
	<g enable-background="new    ">
		<path fill="none" stroke="#E9AB22" stroke-width="5" stroke-miterlimit="10" d="M183.3,520.4c-7.5,2.2-21.7,5.2-36,5.2
			c-19.7,0-33.9-4.3-43.8-12.6c-9.9-8-15.3-20.2-15.2-33.8c0.2-30.9,26.2-48.6,61.5-48.6c13.9,0,24.6,2.3,29.9,4.6l-5.1,16.9
			c-5.9-2.2-13.3-4-25.1-4c-20.3,0-35.7,9.9-35.7,30.1c0,19.2,13.9,30.5,33.9,30.5c5.6,0,10.1-0.6,12-1.4v-19.5h-16.6v-16.4h40.1
			V520.4z"/>
		<path fill="none" stroke="#E9AB22" stroke-width="5" stroke-miterlimit="10" d="M202.4,432.8c9-1.2,20.6-1.9,32.9-1.9
			c20.5,0,33.7,3.2,44.1,9.9c11.2,7.2,18.2,18.6,18.2,35.1c0,17.8-7.5,30.1-17.9,37.7c-11.4,8.1-28.6,12-49.7,12
			c-12.6,0-21.6-0.7-27.7-1.4V432.8z M226.8,508.8c2.1,0.4,5.4,0.4,8.5,0.4c22.1,0.1,36.4-10.4,36.4-32.6
			c0.2-19.3-12.9-29.6-33.9-29.6c-5.4,0-9,0.4-11,0.8V508.8z"/>
		<path fill="none" stroke="#E9AB22" stroke-width="5" stroke-miterlimit="10" d="M392.8,522c-4.5,1.9-14.5,4-27.7,4
			c-37.2,0-56.4-20-56.4-46.6c0-31.8,26.2-49.5,58.8-49.5c12.6,0,22.2,2.2,26.5,4.1l-5,16.7c-5-1.8-11.8-3.5-20.5-3.5
			c-19.3,0-34.4,10.1-34.4,30.8c0,18.6,12.8,30.4,34.5,30.4c7.4,0,15.5-1.4,20.3-3L392.8,522z"/>
	</g>
</g>
</svg>
