<?xml version="1.0" encoding="utf-8"?>
<!-- Generator: Adobe Illustrator 18.0.0, SVG Export Plug-In . SVG Version: 6.00 Build 0)  -->
<!DOCTYPE svg PUBLIC "-//W3C//DTD SVG 1.1//EN" "http://www.w3.org/Graphics/SVG/1.1/DTD/svg11.dtd">
<svg version="1.1" id="Layer_1" xmlns="http://www.w3.org/2000/svg" xmlns:xlink="http://www.w3.org/1999/xlink" x="0px" y="0px"
	 viewBox="0 0 250 250" enable-background="new 0 0 250 250" xml:space="preserve">
<g>
	<path d="M222.6,206.8H27.4c-3.3,0-6-2.7-6-6V73.6c0-3.3,2.7-6,6-6h195.2c3.3,0,6,2.7,6,6v127.1C228.6,204,225.9,206.8,222.6,206.8z
		"/>
	<circle fill="#FFFFFF" cx="125" cy="137.2" r="23.7"/>
	<rect x="61.8" y="43.2" width="48.6" height="27"/>
	<path d="M195,72.3h-21.9c-0.5,0-1-0.4-1-1v-6.6c0-0.5,0.4-1,1-1H195c0.5,0,1,0.4,1,1v6.6C196,71.8,195.5,72.3,195,72.3z"/>
	<path fill="#FFFFFF" d="M98.6,78.4H73.1c-1.8,0-3.3-1.5-3.3-3.3V52.8c0-1.8,1.5-3.3,3.3-3.3h25.4c1.8,0,3.3,1.5,3.3,3.3v22.3
		C101.8,76.9,100.3,78.4,98.6,78.4z"/>
	<path fill="#FFFFFF" d="M192,176.8H58V97.6H192V176.8z M61.5,173.2h127v-72h-127V173.2z"/>
</g>
</svg>
