<?xml version="1.0" encoding="utf-8"?>
<!-- Generator: Adobe Illustrator 18.0.0, SVG Export Plug-In . SVG Version: 6.00 Build 0)  -->
<!DOCTYPE svg PUBLIC "-//W3C//DTD SVG 1.1//EN" "http://www.w3.org/Graphics/SVG/1.1/DTD/svg11.dtd">
<svg version="1.1" id="Layer_1" xmlns="http://www.w3.org/2000/svg" xmlns:xlink="http://www.w3.org/1999/xlink" x="0px" y="0px"
	 viewBox="0 0 250 250" enable-background="new 0 0 250 250" xml:space="preserve">
<g>
	<path d="M227.3,180.7H22.7c-3.4,0-6.2-2.8-6.2-6.2V45.1c0-3.4,2.8-6.2,6.2-6.2h204.5c3.4,0,6.2,2.8,6.2,6.2v129.3
		C233.5,177.9,230.7,180.7,227.3,180.7z"/>
	<path fill="#FFFFFF" d="M207,167.5H43c-3.4,0-6.2-2.8-6.2-6.2V58.4c0-3.4,2.8-6.2,6.2-6.2H207c3.4,0,6.2,2.8,6.2,6.2v102.9
		C213.2,164.7,210.4,167.5,207,167.5z"/>
	<g>
		<g>
			<rect x="153.1" y="71.8" transform="matrix(-0.5861 -0.8103 0.8103 -0.5861 169.8485 290.9474)" width="12.3" height="60.6"/>
			<rect x="153.1" y="71.8" transform="matrix(-0.1585 0.9874 -0.9874 -0.1585 285.2838 -38.9543)" width="12.3" height="60.6"/>
			<rect x="153.1" y="71.8" transform="matrix(-0.9874 -0.1585 0.1585 -0.9874 300.2848 228.1316)" width="12.3" height="60.6"/>
			<circle cx="159.2" cy="102.1" r="23.7"/>
			<rect x="153.1" y="71.8" transform="matrix(-0.8103 0.5861 -0.5861 -0.8103 348.0996 91.4819)" width="12.3" height="60.6"/>
		</g>
		<g>
			<rect x="116.1" y="60" transform="matrix(-0.8647 -0.5022 0.5022 -0.8647 184.0552 205.4512)" width="7.3" height="35.8"/>
			<rect x="116.1" y="60" transform="matrix(0.2563 0.9666 -0.9666 0.2563 164.3488 -57.734)" width="7.3" height="35.8"/>
			<rect x="116.1" y="60" transform="matrix(-0.9666 0.2563 -0.2563 -0.9666 255.3684 122.5942)" width="7.3" height="35.8"/>
			<circle cx="119.7" cy="77.9" r="14"/>
			<rect x="116.1" y="60" transform="matrix(-0.5022 0.8647 -0.8647 -0.5022 247.2058 13.5793)" width="7.3" height="35.8"/>
		</g>
		<g>
			<rect x="88.6" y="88.5" transform="matrix(-0.6556 -0.7551 0.7551 -0.6556 64.9775 277.6304)" width="14.4" height="71"/>
			
				<rect x="88.6" y="88.5" transform="matrix(-7.033905e-02 0.9975 -0.9975 -7.033905e-02 226.2285 37.1575)" width="14.4" height="71"/>
			
				<rect x="88.6" y="88.5" transform="matrix(-0.9975 -7.033916e-02 7.033916e-02 -0.9975 182.6397 254.4268)" width="14.4" height="71"/>
			<circle cx="95.8" cy="124" r="27.8"/>
			<rect x="88.6" y="88.5" transform="matrix(-0.7551 0.6556 -0.6556 -0.7551 249.4321 154.8197)" width="14.4" height="71"/>
		</g>
	</g>
	<rect x="108" y="172.2" width="34" height="32.8"/>
	<path d="M164.4,211.1H85.6c-0.9,0-1.6-0.7-1.6-1.6v-5.2c0-0.9,0.7-1.6,1.6-1.6h78.8c0.9,0,1.6,0.7,1.6,1.6v5.2
		C166,210.3,165.3,211.1,164.4,211.1z"/>
</g>
</svg>
