<?xml version="1.0" encoding="utf-8"?>
<!-- Generator: Adobe Illustrator 18.0.0, SVG Export Plug-In . SVG Version: 6.00 Build 0)  -->
<!DOCTYPE svg PUBLIC "-//W3C//DTD SVG 1.1//EN" "http://www.w3.org/Graphics/SVG/1.1/DTD/svg11.dtd">
<svg version="1.1" id="Layer_1" xmlns="http://www.w3.org/2000/svg" xmlns:xlink="http://www.w3.org/1999/xlink" x="0px" y="0px"
	 viewBox="0 0 250 250" enable-background="new 0 0 250 250" xml:space="preserve">
<g>
	<circle cx="90.5" cy="141.1" r="15.7"/>
	<circle cx="147.5" cy="122.3" r="15.7"/>
	<g>
		
			<ellipse transform="matrix(-3.022143e-02 0.9995 -0.9995 -3.022143e-02 193.2781 95.4059)" cx="50.4" cy="141.5" rx="63.3" ry="21.4"/>
		<ellipse transform="matrix(0.587 0.8096 -0.8096 0.587 155.3378 -104.552)" cx="180.1" cy="100" rx="63.3" ry="21.4"/>
		<path d="M182.2,111.1L60,148.7c-3.2,1-6.7-0.8-7.7-4.1l-12.1-39.2c-4-13,3.4-27,16.4-31l84.8-26.1c14-4.3,29,3.6,33.3,17.6
			l11.5,37.5C187.3,106.6,185.4,110.1,182.2,111.1z"/>
	</g>
	<g>
		<path fill="#FFFFFF" d="M95.8,111.6l-38.1,11.8c-0.5,0.2-1.1-0.1-1.2-0.6L52.8,111c-0.2-0.5,0.1-1.1,0.6-1.2l38.1-11.8
			c0.5-0.2,1.1,0.1,1.2,0.6l3.7,11.8C96.6,110.9,96.4,111.4,95.8,111.6z"/>
		<path fill="#FFFFFF" d="M73.7,131.8L61.9,93.7c-0.2-0.5,0.1-1.1,0.6-1.2l11.8-3.7c0.5-0.2,1.1,0.1,1.2,0.6l11.8,38.1
			c0.2,0.5-0.1,1.1-0.6,1.2L75,132.5C74.4,132.7,73.9,132.4,73.7,131.8z"/>
	</g>
	<circle fill="#FFFFFF" cx="137.8" cy="73.8" r="7.1"/>
	<circle fill="#FFFFFF" cx="130.2" cy="91.4" r="7.1"/>
	<circle fill="#FFFFFF" cx="145.6" cy="99.7" r="7.1"/>
	<circle fill="#FFFFFF" cx="153.4" cy="83.8" r="7.1"/>
	<ellipse transform="matrix(0.9483 -0.3174 0.3174 0.9483 -20.3503 22.9325)" cx="60.2" cy="73.9" rx="12.2" ry="4.4"/>
	<ellipse transform="matrix(0.9736 -0.2285 0.2285 0.9736 -7.9681 32.0511)" cx="134.4" cy="50.4" rx="12.2" ry="4.4"/>
</g>
</svg>
