<?xml version="1.0" encoding="utf-8"?>
<!-- Generator: Adobe Illustrator 18.0.0, SVG Export Plug-In . SVG Version: 6.00 Build 0)  -->
<!DOCTYPE svg PUBLIC "-//W3C//DTD SVG 1.1//EN" "http://www.w3.org/Graphics/SVG/1.1/DTD/svg11.dtd">
<svg version="1.1" id="Layer_1" xmlns="http://www.w3.org/2000/svg" xmlns:xlink="http://www.w3.org/1999/xlink" x="0px" y="0px"
	 viewBox="0 0 250 250" enable-background="new 0 0 250 250" xml:space="preserve">
<g id="Lightbulb">
	<path fill="#FFFFFF" stroke="#000000" stroke-width="4" stroke-miterlimit="10" d="M153.9,196.9c0,15.9-12.9,28.9-28.9,28.9
		c-16,0-28.9-12.9-28.9-28.9C96.1,181,109,168,125,168C140.9,168,153.9,181,153.9,196.9z"/>
	<path fill="#FFFFFF" stroke="#000000" stroke-width="4" stroke-miterlimit="10" d="M159.9,185.5c0,6.3-15.6,11.4-34.9,11.4
		c-19.3,0-34.9-5.1-34.9-11.4c0-6.3,15.6-11.4,34.9-11.4C144.3,174,159.9,179.2,159.9,185.5z"/>
	<path fill="#FFFFFF" stroke="#000000" stroke-width="4" stroke-miterlimit="10" d="M159.9,174c0,6.3-15.6,11.4-34.9,11.4
		c-19.3,0-34.9-5.1-34.9-11.4s15.6-11.4,34.9-11.4C144.3,162.6,159.9,167.7,159.9,174z"/>
	<path fill="#FFFFFF" stroke="#000000" stroke-width="4" stroke-miterlimit="10" d="M159.9,162.6c0,6.3-15.6,11.4-34.9,11.4
		c-19.3,0-34.9-5.1-34.9-11.4c0-6.3,15.6-11.4,34.9-11.4C144.3,151.2,159.9,156.3,159.9,162.6z"/>
	<path fill="#FFFFFF" stroke="#000000" stroke-width="4" stroke-miterlimit="10" d="M159.9,151.2c0,6.3-15.6,11.4-34.9,11.4
		c-19.3,0-34.9-5.1-34.9-11.4c0-6.3,15.6-11.4,34.9-11.4C144.3,139.7,159.9,144.9,159.9,151.2z"/>
	<path fill="#FFFFFF" stroke="#000000" stroke-width="4" stroke-miterlimit="10" d="M159.9,139.7c0,6.3-15.6,11.4-34.9,11.4
		c-19.3,0-34.9-5.1-34.9-11.4c0-6.3,15.6-11.4,34.9-11.4C144.3,128.3,159.9,133.4,159.9,139.7z"/>
	<path fill="#FFFFFF" stroke="#000000" stroke-width="4" stroke-miterlimit="10" d="M182.8,82c0,31.9-25.9,57.8-57.8,57.8
		c-31.9,0-57.8-25.9-57.8-57.8c0-31.9,25.9-57.8,57.8-57.8C156.9,24.2,182.8,50.1,182.8,82z"/>
</g>
</svg>
