<?xml version="1.0" encoding="utf-8"?>
<!-- Generator: Adobe Illustrator 18.0.0, SVG Export Plug-In . SVG Version: 6.00 Build 0)  -->
<!DOCTYPE svg PUBLIC "-//W3C//DTD SVG 1.1//EN" "http://www.w3.org/Graphics/SVG/1.1/DTD/svg11.dtd">
<svg version="1.1" id="Layer_1" xmlns="http://www.w3.org/2000/svg" xmlns:xlink="http://www.w3.org/1999/xlink" x="0px" y="0px"
	 viewBox="0 0 250 250" enable-background="new 0 0 250 250" xml:space="preserve">
<g>
	<g>
		<path d="M212.5,129.5c0.5,0.2,0.9,0.4,1.4,0.6c0.7,0.2,0.9,0.8,0.4,1.3c-0.7,0.6-1.5,0.9-2.4,0.8c-0.5,0-0.5-0.3-0.6-0.8
			c-0.2-0.9,0.4-1.7,0.2-2.5c0-0.1,0-0.2,0.1-0.3c-3.5-0.1-6-2.2-8.6-4.2c-7.5-5.8-12.6-13.4-15.4-22.5c-3.7-12,1.4-24.3,9.5-30.9
			c2.3-1.9,5-2.9,7.9-3.6c5.4-1.3,10.7-1,15.8,1.4c3.6,1.7,6.5,4.3,9,7.4c5.3,6.6,6.9,14.2,5.9,22.4c-0.9,7.9-4.5,14.8-9.5,20.9
			c-2,2.4-4.5,4.5-6.8,6.6c-1.6,1.5-3.5,2.2-5.6,2.4C213.1,128.6,212.7,128.8,212.5,129.5z"/>
	</g>
	<g>
		<path d="M91.3,124.1l-0.2-1c-0.4-1.9,0.8-3.8,2.7-4.3l14-3.2c1.9-0.4,3.8,0.8,4.3,2.7l0.2,1c0.4,1.9-0.8,3.8-2.7,4.3l-14,3.2
			C93.7,127.3,91.7,126.1,91.3,124.1z"/>
		<path d="M83.9,125.5l-0.1-0.4c-0.2-0.9,0.4-1.7,1.2-1.9l6.1-1.4c0.9-0.2,1.7,0.4,1.9,1.2l0.1,0.4c0.2,0.9-0.4,1.7-1.2,1.9
			l-6.1,1.4C85,127,84.1,126.4,83.9,125.5z"/>
		<polyline fill="none" stroke="#000000" stroke-miterlimit="10" points="85.5,124.9 77.5,121.1 79.9,131.8 85.5,124.9 		"/>
		<line fill="none" stroke="#000000" stroke-miterlimit="10" x1="84.7" y1="125.1" x2="75.6" y2="127.2"/>
		<polyline fill="none" stroke="#000000" stroke-miterlimit="10" points="111.6,121 124.3,116.2 110.7,117.4 		"/>
	</g>
	<g>
		<path d="M139.5,152.6c0.5,0.2,1,0.5,1.5,0.6c0.8,0.3,1,0.9,0.4,1.5c-0.7,0.7-1.6,1-2.6,0.9c-0.5,0-0.6-0.4-0.7-0.9
			c-0.2-1,0.5-1.8,0.2-2.7c0-0.1,0-0.2,0.1-0.4c-3.8-0.2-6.6-2.4-9.4-4.6c-6.6-5.1-11.4-11.4-14.6-18.7
			c-0.8-1.9,31.4-14.6,30.8-16.5c-0.8-2.7-35.7-0.3-35.8-3c-0.2-10.2,4.7-19.8,11.7-25.5c2.5-2.1,5.5-3.2,8.6-3.9
			c5.9-1.5,11.7,2.5,17.2,5.2c3.9,1.9,7,4.7,9.8,8.1c5.8,7.2,7.5,15.5,6.5,24.5c-1,8.7-5,16.1-10.4,22.7c-2.2,2.6-4.9,4.9-7.4,7.2
			c-1.7,1.6-2.2,4.3-4.5,4.5C140.1,151.6,139.7,151.8,139.5,152.6z"/>
	</g>
	<g>
		<g>
			<path d="M17.7,122.5c-1-7.7,4.7-19.8,11.7-25.5c2.5-2.1,5.5-3.2,8.6-3.9c5.9-1.5,11.7,2.5,17.2,5.2c3.9,1.9,7,4.7,9.8,8.1
				c2.7,3.3,4.3,8.1,5.5,10.5C71.7,119.2,18.7,130.1,17.7,122.5z"/>
			<path d="M71.6,137.1c1-1.8,0.1,5.1-0.2,7.7c-1,8.7-5,16.1-10.4,22.7c-2.2,2.6-4.9,4.9-7.4,7.2c-1.7,1.6-2.2,4.3-4.5,4.5
				c-0.7,0.1-1.1,0.3-1.3,1.1c0.5,0.2,1,0.5,1.5,0.6c0.8,0.3,1,0.9,0.4,1.5c-0.7,0.7-1.6,1-2.6,0.9c-0.5,0-0.6-0.4-0.7-0.9
				c-0.2-1,0.5-1.8,0.2-2.7c0-0.1,0-0.2,0.1-0.4c-3.8-0.2-6.6-2.4-9.4-4.6c-6.6-5.1-16.1-18.6-14.6-18.7
				C33.1,155.1,67.8,144,71.6,137.1z"/>
		</g>
		<path d="M18.7,135.6c7.5,0,36.1-5.1,34.1-3.6c-4.5,3.3-11.8,6.5-17.1,6.7C27.1,138.9,13.6,135.6,18.7,135.6z"/>
		<path d="M14.2,141.9c-0.9,4,13.3,6.6,16.2,4.6s-11.7,8.4-14.4,3.1C13.4,144.4,14.2,141.9,14.2,141.9z"/>
	</g>
</g>
</svg>
