<?xml version="1.0" encoding="utf-8"?>
<!-- Generator: Adobe Illustrator 18.0.0, SVG Export Plug-In . SVG Version: 6.00 Build 0)  -->
<!DOCTYPE svg PUBLIC "-//W3C//DTD SVG 1.1//EN" "http://www.w3.org/Graphics/SVG/1.1/DTD/svg11.dtd">
<svg version="1.1" id="Layer_1" xmlns="http://www.w3.org/2000/svg" xmlns:xlink="http://www.w3.org/1999/xlink" x="0px" y="0px"
	 viewBox="0 0 250 250" enable-background="new 0 0 250 250" xml:space="preserve">
<g>
	<path stroke="#000000" stroke-miterlimit="10" d="M35.9,128.3h140.4c0-35.2-32.5-55.3-71.3-55.3C66.3,73.1,35.9,93.1,35.9,128.3z"
		/>
	<path stroke="#000000" stroke-miterlimit="10" d="M35.9,128.3c-10.7,0-15.2-3.2-19.4-13.8c0,12.3,8.7,22.3,19.4,22.3
		c21.8,19.2,122.7,17.1,140.1,0c17.3,0,26.5-1.1,36-14.5c14.1,0,21.5-4.9,21.5-14.2c0-9.3-11.5-16.9-25.6-16.9
		c-14.1,0-21.5,4.9-21.5,14.2c0,11.4,2.7,22.9-10.1,22.9"/>
	<path stroke="#000000" stroke-miterlimit="10" d="M147.6,172.3c5.5,2.2,23-1.7,25-4.2L159,144.7l-14,2.9L147.6,172.3z"/>
	<path stroke="#000000" stroke-miterlimit="10" d="M119.5,174.4c4.2,3,24.3,0.8,25.6-1.5l-8.6-24.2l-13.1,1.2L119.5,174.4z"/>
	<path stroke="#000000" stroke-miterlimit="10" d="M71.5,173.5l11.3-23.9l13.2,0.7l2.4,25.5C93.2,178.6,72.8,175.6,71.5,173.5z"/>
	<path stroke="#000000" stroke-miterlimit="10" d="M69,173.4c-8.1,2.5-23.2-3.7-24.8-6.4l14.2-20.9l13.1,2.3L69,173.4z"/>
	<ellipse stroke="#000000" stroke-miterlimit="10" cx="178.4" cy="126.5" rx="4.6" ry="3.6"/>
	<ellipse stroke="#000000" stroke-miterlimit="10" cx="35.9" cy="126.5" rx="4.6" ry="3.6"/>
</g>
</svg>
