<?xml version="1.0" encoding="utf-8"?>
<!-- Generator: Adobe Illustrator 18.0.0, SVG Export Plug-In . SVG Version: 6.00 Build 0)  -->
<!DOCTYPE svg PUBLIC "-//W3C//DTD SVG 1.1//EN" "http://www.w3.org/Graphics/SVG/1.1/DTD/svg11.dtd">
<svg version="1.1" id="Layer_1" xmlns="http://www.w3.org/2000/svg" xmlns:xlink="http://www.w3.org/1999/xlink" x="0px" y="0px"
	 viewBox="0 0 250 250" enable-background="new 0 0 250 250" xml:space="preserve">
<g>
	<g>
		<path fill="#FFFFFF" d="M192.3,125c0,36.8-16.1,66.8-39.7,66.8s-42.7-29.8-42.7-66.6s19.1-66.6,42.7-66.6S192.3,88.3,192.3,125z"
			/>
		<path d="M152.6,194.8c-12.4,0-24-7.4-32.6-20.8c-8.4-13-13-30.3-13-48.7s4.6-35.6,13-48.7c8.6-13.4,20.2-20.8,32.6-20.8
			c12.3,0,23.4,7.4,31.2,20.8c7.4,12.6,11.4,29.8,11.4,48.4c0,18.6-4,35.9-11.4,48.7C176,187.3,164.9,194.8,152.6,194.8z
			 M152.6,61.6c-21.9,0-39.8,28.6-39.8,63.7s17.8,63.7,39.8,63.7c21,0,36.8-27.5,36.8-63.9C189.3,88.9,173.5,61.6,152.6,61.6z"/>
	</g>
	<g>
		<path fill="#FFFFFF" d="M133.6,125c0,36.8-16.1,66.8-39.7,66.8s-42.7-29.8-42.7-66.6s19.1-66.6,42.7-66.6S133.6,88.3,133.6,125z"
			/>
		<path d="M93.9,194.8c-12.4,0-24-7.4-32.6-20.8c-8.4-13-13-30.3-13-48.7s4.6-35.6,13-48.7c8.6-13.4,20.2-20.8,32.6-20.8
			c12.3,0,23.4,7.4,31.2,20.8c7.4,12.6,11.4,29.8,11.4,48.4c0,18.6-4,35.9-11.4,48.7C117.3,187.3,106.2,194.8,93.9,194.8z
			 M93.9,61.6c-21.9,0-39.8,28.6-39.8,63.7s17.8,63.7,39.8,63.7c21,0,36.8-27.5,36.8-63.9C130.7,88.9,114.9,61.6,93.9,61.6z"/>
	</g>
	<g>
		<path fill="#FFFFFF" d="M104.9,134c0,36.8-16.1,66.8-39.7,66.8s-42.7-29.8-42.7-66.6s19.1-66.6,42.7-66.6S104.9,97.3,104.9,134z"
			/>
		<path d="M65.2,203.8c-12.4,0-24-7.4-32.6-20.8c-8.4-13-13-30.3-13-48.7c0-18.3,4.6-35.6,13-48.7c8.6-13.4,20.2-20.8,32.6-20.8
			c12.3,0,23.4,7.4,31.2,20.8c7.4,12.6,11.4,29.8,11.4,48.4c0,18.6-4,35.9-11.4,48.7C88.6,196.3,77.5,203.8,65.2,203.8z M65.2,70.6
			c-21.9,0-39.8,28.6-39.8,63.7c0,35.1,17.8,63.7,39.8,63.7c21,0,36.8-27.5,36.8-63.9C102,97.9,86.2,70.6,65.2,70.6z"/>
	</g>
	<g>
		<path fill="#FFFFFF" d="M227.5,131.8c0,36.8-16.1,66.8-39.7,66.8s-42.7-29.8-42.7-66.6s19.1-66.6,42.7-66.6S227.5,95,227.5,131.8z
			"/>
		<path d="M187.8,201.5c-12.4,0-24-7.4-32.6-20.8c-8.4-13-13-30.3-13-48.7c0-18.3,4.6-35.6,13-48.7c8.6-13.4,20.2-20.8,32.6-20.8
			c12.3,0,23.4,7.4,31.2,20.8c7.4,12.6,11.4,29.8,11.4,48.4c0,18.6-4,35.9-11.4,48.7C211.2,194.1,200.1,201.5,187.8,201.5z
			 M187.8,68.4c-21.9,0-39.8,28.6-39.8,63.7c0,35.1,17.8,63.7,39.8,63.7c21,0,36.8-27.5,36.8-63.9C224.6,95.6,208.8,68.4,187.8,68.4
			z"/>
	</g>
	<g>
		<path fill="#FFFFFF" d="M116.9,147.1c0,36.8-19.1,66.6-42.7,66.6s-39.7-29.8-39.7-66.6s16.1-66.6,39.7-66.6
			S116.9,110.3,116.9,147.1z"/>
		<path d="M74.2,216.6c-12.3,0-23.4-7.4-31.2-21c-7.3-12.7-11.4-29.9-11.4-48.5s4-35.9,11.4-48.5c7.8-13.5,18.9-21,31.2-21
			c12.4,0,24,7.4,32.6,20.8c8.4,13,13,30.3,13,48.7s-4.6,35.6-13,48.7C98.2,209.2,86.6,216.6,74.2,216.6z M74.2,83.4
			c-21,0-36.8,27.4-36.8,63.7c0,36.3,15.8,63.7,36.8,63.7c21.9,0,39.8-28.6,39.8-63.7C114,112,96.1,83.4,74.2,83.4z"/>
	</g>
	<g>
		<path fill="#FFFFFF" d="M218.3,147.1c0,36.8-16.1,66.8-39.7,66.8s-42.7-29.8-42.7-66.6s19.1-66.6,42.7-66.6
			S218.3,110.3,218.3,147.1z"/>
		<path d="M178.6,216.8c-12.4,0-24-7.4-32.6-20.8c-8.4-13-13-30.3-13-48.7s4.6-35.6,13-48.7c8.6-13.4,20.2-20.8,32.6-20.8
			c12.3,0,23.4,7.4,31.2,20.8c7.4,12.6,11.4,29.8,11.4,48.4c0,18.6-4,35.9-11.4,48.7C202,209.3,190.9,216.8,178.6,216.8z
			 M178.6,83.6c-21.9,0-39.8,28.6-39.8,63.7c0,35.1,17.8,63.7,39.8,63.7c21,0,36.8-27.5,36.8-63.9
			C215.4,110.9,199.5,83.6,178.6,83.6z"/>
	</g>
	<g>
		<polyline fill="#FFFFFF" points="104.9,80.3 111.6,54.4 99.3,31.3 125.4,28.1 133.6,46.4 144,80.7 		"/>
		<polygon points="141.2,81.6 130.9,47.5 123.6,31.2 103.9,33.7 114.7,54 107.7,81.1 102.1,79.6 108.5,54.8 94.8,28.9 127.2,24.9 
			136.4,45.6 146.8,79.9 		"/>
	</g>
	<g>
		<path fill="#FFFFFF" d="M181.7,152.8c0,38.3-18.5,69.3-56.8,69.3s-55.8-31.3-55.8-69.6s17.5-69.1,55.8-69.1
			S181.7,114.5,181.7,152.8z"/>
		<path d="M124.9,225.1c-36.2,0-58.7-27.8-58.7-72.5c0-20.6,4.9-38.1,14.1-50.6c10.3-14,25.7-21.4,44.6-21.4
			c19,0,34.6,7.4,45.1,21.5c9.6,12.8,14.6,30.3,14.6,50.8s-5.1,38-14.6,50.8C159.5,217.7,143.9,225.1,124.9,225.1z M124.9,86.4
			c-17.2,0-30.7,6.4-39.9,19c-8.5,11.6-13,27.9-13,47.2c0,19.3,4.5,35.8,13,47.4c9.3,12.8,22.7,19.2,39.9,19.2
			c39.7,0,53.9-34.3,53.9-66.4C178.8,120.7,164.6,86.4,124.9,86.4z"/>
	</g>
</g>
</svg>
