<svg id="Layer_1" data-name="Layer 1" xmlns="http://www.w3.org/2000/svg" viewBox="0 0 303.96 67.52">
  <defs>
    <style>
      .cls-1 {
        fill: #ee6339;
      }

      .cls-2 {
        fill: #231f20;
      }
    </style>
  </defs>
  <title>skp_redesign</title>
  <g>
    <path class="cls-1" d="M2832.68,536.21a4.78,4.78,0,0,0,.85,2.56q1.29,1.61,4.47,1.61a6.69,6.69,0,0,0,3.33-.81,2.67,2.67,0,0,0,1.44-2.5,2.13,2.13,0,0,0-1.15-1.95,13.91,13.91,0,0,0-2.9-.95l-2.7-.67a13.27,13.27,0,0,1-3.81-1.41,4.2,4.2,0,0,1-2.19-3.75,5.7,5.7,0,0,1,2.06-4.56,8.29,8.29,0,0,1,5.54-1.74q4.55,0,6.56,2.63a5.67,5.67,0,0,1,1.22,3.6h-3.15a3.79,3.79,0,0,0-.82-2q-1.18-1.31-4.08-1.31a5,5,0,0,0-2.93.72,2.24,2.24,0,0,0-1,1.9,2.34,2.34,0,0,0,1.31,2.07,8,8,0,0,0,2.23.81l2.25,0.54a17.65,17.65,0,0,1,4.92,1.69,4.47,4.47,0,0,1,1.95,4,6.1,6.1,0,0,1-2,4.58q-2,1.93-6.21,1.93-4.49,0-6.36-2a7.57,7.57,0,0,1-2-5h3.21Z" transform="translate(-2733.96 -515.1)"/>
    <path class="cls-1" d="M2850.37,517h3.38v5.55h3.17v2.73h-3.17v13a1.4,1.4,0,0,0,.71,1.39,3,3,0,0,0,1.3.2h0.52l0.65-.06v2.65a7.5,7.5,0,0,1-1.2.24,11.54,11.54,0,0,1-1.35.07q-2.34,0-3.17-1.2a5.32,5.32,0,0,1-.83-3.11V525.3h-2.69v-2.73h2.69V517Z" transform="translate(-2733.96 -515.1)"/>
    <path class="cls-1" d="M2872.53,523.12a7.53,7.53,0,0,1,3,2.57,8.9,8.9,0,0,1,1.33,3.51,23.13,23.13,0,0,1,.29,4.38h-14.45a8.59,8.59,0,0,0,1.42,4.87,4.73,4.73,0,0,0,4.1,1.83,5.28,5.28,0,0,0,4.14-1.73,5.9,5.9,0,0,0,1.23-2.33h3.28a6.9,6.9,0,0,1-.86,2.44,8.74,8.74,0,0,1-1.63,2.2,7.71,7.71,0,0,1-3.74,2,11.31,11.31,0,0,1-2.71.3,8.3,8.3,0,0,1-6.25-2.7q-2.56-2.7-2.56-7.56a11.46,11.46,0,0,1,2.58-7.77,8.49,8.49,0,0,1,6.75-3A9,9,0,0,1,2872.53,523.12Zm1.2,7.8a8.71,8.71,0,0,0-.94-3.47,4.8,4.8,0,0,0-4.54-2.41,5,5,0,0,0-3.83,1.66,6.31,6.31,0,0,0-1.64,4.22h10.95Z" transform="translate(-2733.96 -515.1)"/>
    <path class="cls-1" d="M2883,522.57l5.31,16.18,5.53-16.18h3.65L2890,542.45h-3.56l-7.33-19.87H2883Z" transform="translate(-2733.96 -515.1)"/>
    <path class="cls-1" d="M2912.66,523.12a7.53,7.53,0,0,1,3,2.57,8.9,8.9,0,0,1,1.33,3.51,23.13,23.13,0,0,1,.29,4.38h-14.45a8.59,8.59,0,0,0,1.42,4.87,4.73,4.73,0,0,0,4.1,1.83,5.28,5.28,0,0,0,4.14-1.73,5.9,5.9,0,0,0,1.23-2.33H2917a6.9,6.9,0,0,1-.86,2.44,8.74,8.74,0,0,1-1.63,2.2,7.71,7.71,0,0,1-3.74,2,11.31,11.31,0,0,1-2.71.3,8.3,8.3,0,0,1-6.25-2.7q-2.56-2.7-2.56-7.56a11.46,11.46,0,0,1,2.58-7.77,8.49,8.49,0,0,1,6.75-3A9,9,0,0,1,2912.66,523.12Zm1.2,7.8a8.71,8.71,0,0,0-.94-3.47,4.8,4.8,0,0,0-4.54-2.41,5,5,0,0,0-3.83,1.66,6.31,6.31,0,0,0-1.64,4.22h10.95Z" transform="translate(-2733.96 -515.1)"/>
    <path class="cls-1" d="M2932,515.19h3.21V531l8.56-8.44H2948l-7.64,7.39,8.07,12.48h-4.27L2938,532.33l-2.74,2.65v7.46H2932V515.19Z" transform="translate(-2733.96 -515.1)"/>
    <path class="cls-1" d="M2954.42,522.57v13.19a5.68,5.68,0,0,0,.47,2.49,3.26,3.26,0,0,0,3.23,1.78,4.57,4.57,0,0,0,4.63-3.12,12.66,12.66,0,0,0,.67-4.58v-9.76h3.34v19.87h-3.15l0-2.93a6.71,6.71,0,0,1-1.58,1.91,6.88,6.88,0,0,1-4.55,1.56q-4.17,0-5.68-2.84a8.59,8.59,0,0,1-.82-4.06V522.57h3.41Z" transform="translate(-2733.96 -515.1)"/>
    <path class="cls-1" d="M2971.94,515.1h3.25V525a7.31,7.31,0,0,1,5.94-2.93,7.79,7.79,0,0,1,6,2.55q2.32,2.55,2.32,7.52a12.87,12.87,0,0,1-2.29,7.83,7.44,7.44,0,0,1-6.35,3.12A6.53,6.53,0,0,1,2977,542a9.23,9.23,0,0,1-2-2.08v2.54h-3.08V515.1ZM2984.71,538a10.57,10.57,0,0,0,1.35-5.68,9.3,9.3,0,0,0-1.35-5.2,4.45,4.45,0,0,0-4-2.06,5.56,5.56,0,0,0-4,1.69q-1.72,1.69-1.72,5.57a12.26,12.26,0,0,0,.71,4.55,4.89,4.89,0,0,0,4.93,3.28A4.48,4.48,0,0,0,2984.71,538Z" transform="translate(-2733.96 -515.1)"/>
    <path class="cls-1" d="M2993.35,515.19h3.4V519h-3.4v-3.79Zm0,7.48h3.4v19.78h-3.4V522.67Z" transform="translate(-2733.96 -515.1)"/>
    <path class="cls-1" d="M3001.72,515.19h3.21V531l8.56-8.44h4.27l-7.64,7.39,8.07,12.48h-4.27l-6.25-10.11-2.74,2.65v7.46h-3.21V515.19Z" transform="translate(-2733.96 -515.1)"/>
  </g>
  <g>
    <path class="cls-2" d="M2829.24,554.43h3.27v2.63a8.13,8.13,0,0,1,2.2-2.1,7.08,7.08,0,0,1,4-1.11,7.49,7.49,0,0,1,5.75,2.59q2.36,2.59,2.36,7.39,0,6.5-3.41,9.28a7.72,7.72,0,0,1-5,1.76,6.85,6.85,0,0,1-3.78-1,8.69,8.69,0,0,1-2-1.91v10.15h-3.34v-27.7ZM2841.81,570q1.55-2,1.55-5.85a10.9,10.9,0,0,0-.69-4.08,5.05,5.05,0,0,0-9.53.19,13.72,13.72,0,0,0-.69,4.71,10,10,0,0,0,.69,3.92A5.07,5.07,0,0,0,2841.81,570Z" transform="translate(-2733.96 -515.1)"/>
    <path class="cls-2" d="M2850.66,546.86H2854V557a9.63,9.63,0,0,1,2.13-2.12,7.2,7.2,0,0,1,4-1.06q4.32,0,5.86,3a10.32,10.32,0,0,1,.83,4.58v12.75h-3.43V561.69a7,7,0,0,0-.56-3.21,3.56,3.56,0,0,0-3.41-1.63,5.69,5.69,0,0,0-3.77,1.43q-1.69,1.43-1.69,5.4v10.54h-3.34V546.86Z" transform="translate(-2733.96 -515.1)"/>
    <path class="cls-2" d="M2886.19,556.32q2.63,2.56,2.63,7.53a13,13,0,0,1-2.32,7.93q-2.32,3.13-7.2,3.13a8.11,8.11,0,0,1-6.47-2.77,11,11,0,0,1-2.39-7.44,11.89,11.89,0,0,1,2.52-8,8.45,8.45,0,0,1,6.78-3A8.9,8.9,0,0,1,2886.19,556.32Zm-2.07,13.21a12.62,12.62,0,0,0,1.22-5.59,10,10,0,0,0-.88-4.52,5,5,0,0,0-4.81-2.74,4.73,4.73,0,0,0-4.4,2.33,10.92,10.92,0,0,0-1.38,5.63,9.49,9.49,0,0,0,1.38,5.28,4.83,4.83,0,0,0,4.37,2.11A4.55,4.55,0,0,0,2884.11,569.53Z" transform="translate(-2733.96 -515.1)"/>
    <path class="cls-2" d="M2893.59,548.79H2897v5.55h3.17v2.73H2897v13a1.4,1.4,0,0,0,.71,1.39,3,3,0,0,0,1.3.2h0.52l0.65-.06v2.65a7.5,7.5,0,0,1-1.2.24,11.54,11.54,0,0,1-1.35.07q-2.34,0-3.17-1.2a5.32,5.32,0,0,1-.83-3.11V557.07h-2.69v-2.73h2.69v-5.55Z" transform="translate(-2733.96 -515.1)"/>
    <path class="cls-2" d="M2917.88,556.32q2.63,2.56,2.63,7.53a13,13,0,0,1-2.32,7.93q-2.32,3.13-7.2,3.13a8.11,8.11,0,0,1-6.47-2.77,11,11,0,0,1-2.39-7.44,11.89,11.89,0,0,1,2.52-8,8.45,8.45,0,0,1,6.78-3A8.9,8.9,0,0,1,2917.88,556.32Zm-2.07,13.21a12.62,12.62,0,0,0,1.22-5.59,10,10,0,0,0-.88-4.52,5,5,0,0,0-4.81-2.74,4.73,4.73,0,0,0-4.4,2.33,10.92,10.92,0,0,0-1.38,5.63,9.49,9.49,0,0,0,1.38,5.28,4.83,4.83,0,0,0,4.37,2.11A4.55,4.55,0,0,0,2915.81,569.53Z" transform="translate(-2733.96 -515.1)"/>
    <path class="cls-2" d="M2935.66,555.14a9.2,9.2,0,0,1,1.92,1.89v-2.5h3.08V572.6a13.37,13.37,0,0,1-1.11,6q-2.07,4-7.82,4a9.57,9.57,0,0,1-5.38-1.44,5.61,5.61,0,0,1-2.44-4.5h3.4a3.78,3.78,0,0,0,1,2.06,4.87,4.87,0,0,0,3.54,1.11q3.82,0,5-2.71a15.35,15.35,0,0,0,.65-5.7,6.53,6.53,0,0,1-2.4,2.26,8.59,8.59,0,0,1-9.34-1.55q-2.41-2.29-2.41-7.58,0-5,2.43-7.79a7.51,7.51,0,0,1,5.87-2.8A7.2,7.2,0,0,1,2935.66,555.14Zm0.41,3.58a4.84,4.84,0,0,0-3.86-1.78,4.77,4.77,0,0,0-4.8,3.3,13,13,0,0,0-.68,4.62,8.23,8.23,0,0,0,1.36,5.11,4.37,4.37,0,0,0,3.65,1.75,5.12,5.12,0,0,0,5-3.25,10.51,10.51,0,0,0,.81-4.29Q2937.58,560.5,2936.07,558.72Z" transform="translate(-2733.96 -515.1)"/>
    <path class="cls-2" d="M2945.84,554.34H2949v3.43a7.57,7.57,0,0,1,1.91-2.44,5,5,0,0,1,3.51-1.44l0.32,0,0.76,0.07v3.53a5.1,5.1,0,0,0-.55-0.07l-0.55,0a4.76,4.76,0,0,0-3.88,1.62,5.66,5.66,0,0,0-1.35,3.74v11.43h-3.34V554.34Z" transform="translate(-2733.96 -515.1)"/>
    <path class="cls-2" d="M2969.05,562.18a1.81,1.81,0,0,0,1.54-1,3,3,0,0,0,.22-1.29,2.73,2.73,0,0,0-1.21-2.49,6.48,6.48,0,0,0-3.47-.77,4.4,4.4,0,0,0-3.7,1.42,4.68,4.68,0,0,0-.8,2.33h-3.12q0.09-3.68,2.38-5.13a9.74,9.74,0,0,1,5.31-1.44,10.79,10.79,0,0,1,5.69,1.34,4.53,4.53,0,0,1,2.17,4.16V570.8a1.47,1.47,0,0,0,.21.83,1,1,0,0,0,.9.31l0.5,0,0.59-.08v2.47a9.33,9.33,0,0,1-1.19.28,8.69,8.69,0,0,1-1.11.06,2.75,2.75,0,0,1-2.5-1.22,4.72,4.72,0,0,1-.58-1.84,8.5,8.5,0,0,1-2.93,2.32,9.08,9.08,0,0,1-4.21,1,6.27,6.27,0,0,1-4.52-1.68,5.57,5.57,0,0,1-1.75-4.2,5.4,5.4,0,0,1,1.73-4.28,8.22,8.22,0,0,1,4.53-1.87Zm-7,9a3.93,3.93,0,0,0,2.5.83,7.62,7.62,0,0,0,3.41-.82,4.59,4.59,0,0,0,2.78-4.43v-2.69a5.68,5.68,0,0,1-1.57.65,13.29,13.29,0,0,1-1.89.37l-2,.26a7.81,7.81,0,0,0-2.73.76,3,3,0,0,0-1.55,2.78A2.74,2.74,0,0,0,2962,571.21Z" transform="translate(-2733.96 -515.1)"/>
    <path class="cls-2" d="M2979.26,554.43h3.27v2.63a8.13,8.13,0,0,1,2.2-2.1,7.08,7.08,0,0,1,4-1.11,7.49,7.49,0,0,1,5.75,2.59q2.36,2.59,2.36,7.39,0,6.5-3.41,9.28a7.72,7.72,0,0,1-5,1.76,6.85,6.85,0,0,1-3.78-1,8.69,8.69,0,0,1-2-1.91v10.15h-3.34v-27.7ZM2991.82,570q1.55-2,1.55-5.85a10.9,10.9,0,0,0-.69-4.08,5.05,5.05,0,0,0-9.53.19,13.72,13.72,0,0,0-.69,4.71,10,10,0,0,0,.69,3.92A5.07,5.07,0,0,0,2991.82,570Z" transform="translate(-2733.96 -515.1)"/>
    <path class="cls-2" d="M3000.67,546.86H3004V557a9.63,9.63,0,0,1,2.13-2.12,7.2,7.2,0,0,1,4-1.06q4.32,0,5.86,3a10.32,10.32,0,0,1,.83,4.58v12.75h-3.43V561.69a7,7,0,0,0-.56-3.21,3.56,3.56,0,0,0-3.41-1.63,5.69,5.69,0,0,0-3.77,1.43q-1.69,1.43-1.69,5.4v10.54h-3.34V546.86Z" transform="translate(-2733.96 -515.1)"/>
    <path class="cls-2" d="M3034.23,554.34h3.69q-0.71,1.91-3.14,8.72-1.82,5.12-3,8.35-2.89,7.6-4.08,9.27t-4.08,1.67a8,8,0,0,1-1.08-.06,8.58,8.58,0,0,1-.94-0.2v-3a11.6,11.6,0,0,0,1.26.3,4.9,4.9,0,0,0,.69.06,2.4,2.4,0,0,0,1.36-.31,2.83,2.83,0,0,0,.73-0.75q0.09-.15.67-1.52t0.83-2l-7.35-20.46h3.79l5.33,16.19Z" transform="translate(-2733.96 -515.1)"/>
  </g>
  <g>
    <path d="M2820.57,536.19v31.86c-1.95,5-3.73,6.18-9.23,6.18h-47.27a11.08,11.08,0,0,1-2.38-.17c-3.37-.75-5.16-3-5.94-6.26v-31.6a3.78,3.78,0,0,0,.21-0.49,7.41,7.41,0,0,1,7.77-5.94c2,0,8.72.06,10.72,0a2.34,2.34,0,0,0,1.58-.83c1.36-1.87,2.55-3.86,3.91-5.73a2.28,2.28,0,0,1,1.57-.86q9-.09,18,0a2.28,2.28,0,0,1,1.56.87c1.33,1.83,2.58,3.73,3.78,5.65a1.84,1.84,0,0,0,1.84,1c2.13-.06,4.27,0,6.41,0a6.56,6.56,0,0,1,5.3,2.37A23.82,23.82,0,0,1,2820.57,536.19Zm-30.05,33.11h21.9c2.32,0,3.13-.83,3.13-3.14,0-8.77,0-19.48,0-28.24,0-2.28-.87-3.15-3.14-3.16-2.76,0-5.52,0-8.28,0a1.94,1.94,0,0,1-1.95-1c-1.13-1.86-2.41-3.63-3.54-5.49a2,2,0,0,0-2.05-1.08c-4,0-8.1,0-12.15,0a2,2,0,0,0-2,1c-1.16,1.9-2.47,3.69-3.66,5.57a1.86,1.86,0,0,1-1.82,1c-2.76-.06-10.23,0-13,0-2.47,0-3.25.8-3.25,3.29,0,8.63,0,19.21,0,27.84,0,2.66.75,3.42,3.41,3.42h26.34Z" transform="translate(-2733.96 -515.1)"/>
    <path class="cls-1" d="M2802.27,552.71a12.48,12.48,0,1,1-12.5-12.56A12.44,12.44,0,0,1,2802.27,552.71Zm-12.48-7.55a7.51,7.51,0,1,0,7.57,7.53A7.58,7.58,0,0,0,2789.79,545.17Z" transform="translate(-2733.96 -515.1)"/>
    <path class="cls-1" d="M2789.73,560.18a7.57,7.57,0,0,1-7.5-7.47,7.24,7.24,0,0,1,.22-1.78,9,9,0,0,1,.54-2.63,4,4,0,0,1,4-2.7l0.25,0a7.48,7.48,0,0,1,2.54-.45,7.62,7.62,0,0,1,7.18,5.15,10.16,10.16,0,0,0-2.4-6.69,8,8,0,0,0-6-2.65,6.75,6.75,0,0,0-4.23,1.33,8.51,8.51,0,0,0-1.84,2.07l0-3-5.07,0-0.18,28.06,5.23,0,0.07-10.42a7.79,7.79,0,0,0,1.71,2,6.54,6.54,0,0,0,4,1.23,7.85,7.85,0,0,0,6.25-2.76,8.8,8.8,0,0,0,1.56-2.64A7.62,7.62,0,0,1,2789.73,560.18Z" transform="translate(-2733.96 -515.1)"/>
    <path class="cls-1" d="M2755.85,538.93l5.2,0L2761,553.71l6.72-7.59,6.58,0-7.3,7.49,7.45,12.64-6.43,0-4.85-8.67-2.2,2.26,0,6.36-5.2,0Z" transform="translate(-2733.96 -515.1)"/>
    <path class="cls-1" d="M2739.32,559.47a3.51,3.51,0,0,0,.71,2q1,1.06,3.65,1.08a5.59,5.59,0,0,0,2.49-.45,1.48,1.48,0,0,0,.93-1.39,1.5,1.5,0,0,0-.73-1.36,30.28,30.28,0,0,0-5.52-1.63,11.5,11.5,0,0,1-4.84-2.17,4.63,4.63,0,0,1-1.39-3.65,6.31,6.31,0,0,1,2.23-4.8,8.86,8.86,0,0,1,6.21-2,11.38,11.38,0,0,1,6.17,1.55q2.38,1.53,2.71,5.24l-5.29,0a3.12,3.12,0,0,0-.57-1.62,3.64,3.64,0,0,0-3-1.09,4.28,4.28,0,0,0-2.47.52,1.55,1.55,0,0,0-.74,1.26,1.38,1.38,0,0,0,.77,1.32,33.62,33.62,0,0,0,5.51,1.5,10.14,10.14,0,0,1,4.72,2.28,5.1,5.1,0,0,1,1.53,3.81,6.14,6.14,0,0,1-2.27,4.89q-2.25,1.89-6.94,1.86t-7-2.06a6.55,6.55,0,0,1-2.25-5.14Z" transform="translate(-2733.96 -515.1)"/>
  </g>
</svg>
