<svg id="Layer_1" data-name="Layer 1" xmlns="http://www.w3.org/2000/svg" viewBox="0 0 275 271.15">
  <defs>
    <style>
      .cls-1 {
        fill: #e9ab22;
      }

      .cls-2 {
        fill: #172a53;
      }
    </style>
  </defs>
  <title>WVU_GDC_Logo</title>
  <g>
    <path class="cls-1" d="M639.69,96c-2.93-2.81-4.26-4.14-2.35-7.87-1.23-.39-2.16-1-2.95-0.88-4.43.82-8,.39-11.43-3.41-2.54-2.82-6.51-3.23-9.15,1.13-0.52.86-1.95,2-2.55,1.85-6.92-2.29-8.61,2.32-9.92,7.92-3.73-.46-7.64-0.12-10.73-1.56-2.65-1.23-4.37-4.49-6.35-6.69l-9.55,13.2c-3.53,0-6.7-1-8.28.2a35.93,35.93,0,0,0-5.09,4.87H545.63v13.73l-0.37.29V81.5h-57V16H486c-1.13.45-2.28,0.85-3.38,1.36-2.25,1-3.61,1.93-2.27,5.16,3.12,7.5,3.33,15.05-.39,22.8-2.27,4.72-3,10.2-4.53,15.28-1,3.12-2.58,6.06-3.36,9.21-1.08,4.35-1.23,9-2.61,13.19-0.88,2.72-1.46,5.45-5.13,7.46-5.35,2.93-9.17,8.55-14,12.63a25.8,25.8,0,0,1-2.23,1.68H437.22l-1.12-1.47-1.29,1.47h-0.32l-0.1.47-4.13,4.7-0.95-5.18H407.55l7.9,33.27a39.24,39.24,0,0,1-5.8,4c2.26-6.07-1.43-8.53-6.72-11.33q-3.17,6-6.35,12.12a4.6,4.6,0,0,1,0,.56c-6.69,5.11-1.35,11.73-2.28,18-6-.85-6.93,3.13-7.44,7.86-0.14,1.28-1.38,3.2-2.47,3.49-4.34,1.17-8.82,1.81-13.06,2.61-0.48,4.58-.88,9.38-1.6,14.13-0.13.85-1.6,1.51-2.45,2.25v2.33c4.16,4.26,7.9,8.49,8.58,15,0.32,3.1,3.3,5.94,5.16,8.85a85,85,0,0,0,14.69,17.82c2.38,2.12,6.51,2.28,10.29,3.47l-2.27,3.56c2.46,4.1,4.45,8.53,7.46,12.1,2.62,3.11,6.38,5.25,9.64,7.82h8.15L440.07,254l4.82,4.27h0a62.29,62.29,0,0,0,2.13,19.3c2.38,7.79,5.84,9.51,8.32,9.59h0.17c2.47,0,5.93-1.61,8.71-9.07a55,55,0,0,0,2.83-12.73,9,9,0,0,0,14.67-6.92c0-.29,0-0.58,0-0.86l6.93-2.13a9,9,0,0,0,16.14-2c6.11,7,13,12.25,18.16,12.25a5.89,5.89,0,0,0,3.54-1.09c6-4.36.73-18.28-7.6-29.77a62.28,62.28,0,0,0-13.49-14l-0.11-.08c2-2.42,3.9-4.8,5.78-7.17,5.26,4.19,12.83,7,23.29,7,6.31,0,12.38-.93,15.82-2.42l3.8-1.64-4-17.73-5.29,1.83a29.91,29.91,0,0,1-8.53,1.25c-10,0-12.19-5.35-12.27-9.95,0.49-.85,1-1.71,1.43-2.58l3.41-6.53a16.17,16.17,0,0,1,7.35-1.57,25,25,0,0,1,8.54,1.43l5,1.81,2.93-9.88c3,0.49,6.09-.41,7.73-3.06a164.43,164.43,0,0,0,8.22-16.08c1.67-3.52,3-7.21,4.68-11.29l7.26,5.53c2.27-3.62,3.74-9.08,6.64-10,9.35-2.94,10.87-12.77,17.6-17.71a3.41,3.41,0,0,0,1-2c1.25-6.55,2.44-13.11,3.75-20.19l28.75,22.24c1.59-4.38,3.84-8,4-11.64C642.33,105.48,642.56,98.75,639.69,96ZM537.44,162.57l0.22-.72h0l0.73,0.75Z" transform="translate(-367.24 -15.99)"/>
    <g>
      <path class="cls-2" d="M516.82,236.71c-7.64-10.54-16.59-17.37-21.15-16.47-0.37-.9-2.64-1.15-5.24-0.54s-4.69,1.94-4.46,2.92a0.74,0.74,0,0,0,.16.3l-21.2,6.53c-0.49-.83-2.75-0.86-5.25,0s-4.49,2.36-4.17,3.32a0.77,0.77,0,0,0,.26.34l-0.13.1c-4.29,1.78-7.86,12.48-8.26,25.52-0.43,14.39,3.16,26.17,8,26.32s8.92-10.74,9.56-24.55l1.43-.44a6.47,6.47,0,1,0,12.29-3.78L490,252.78a6.46,6.46,0,1,0,12.35-3.8l1.34-.41c8.2,10.75,17.55,17.15,21.32,14.42C528.93,260.13,525.27,248.36,516.82,236.71Z" transform="translate(-367.24 -15.99)"/>
      <path class="cls-1" d="M475,245.6l-1.17-3.76a1,1,0,0,0-1.23-.65l-4.48,1.39-1.39-4.48a1,1,0,0,0-1.23-.65l-3.76,1.17a1,1,0,0,0-.65,1.23l1.39,4.48L458,245.73a1,1,0,0,0-.65,1.23l1.17,3.76a1,1,0,0,0,1.23.65l4.48-1.39,1.39,4.48a1,1,0,0,0,1.23.65l3.76-1.17a1,1,0,0,0,.65-1.23l-1.39-4.48,4.48-1.39A1,1,0,0,0,475,245.6Z" transform="translate(-367.24 -15.99)"/>
      <g>
        <circle class="cls-1" cx="125" cy="215.12" r="2.93"/>
        <circle class="cls-1" cx="121.86" cy="222.37" r="2.93"/>
        <circle class="cls-1" cx="128.2" cy="225.78" r="2.93"/>
        <circle class="cls-1" cx="131.42" cy="219.25" r="2.93"/>
      </g>
    </g>
    <g>
      <path class="cls-2" d="M420.77,198.94h8.32v5.25a28.86,28.86,0,0,1-3.5.19c-8.92,0-14.46-4.9-14.46-12.78,0-3.78,1.49-12.57,15.34-12.57a31.45,31.45,0,0,1,11.68,1.85l2.49,0.93,4-13.14-2.08-.87c-2.86-1.2-8.54-2.48-15.93-2.48-20.15,0-33.22,10.53-33.3,26.81a23.65,23.65,0,0,0,8.5,18.89c5.53,4.63,13.23,6.87,23.52,6.87a71.46,71.46,0,0,0,18.71-2.73l1.79-.53V185.71H420.77v13.23Z" transform="translate(-367.24 -15.99)"/>
      <path class="cls-2" d="M492.8,170.84c-5.71-3.72-12.95-5.38-23.45-5.38a128.3,128.3,0,0,0-16.82,1l-2.16.3v50.18l2.22,0.25a126.63,126.63,0,0,0,14.12.71c11.49,0,20.35-2.18,26.36-6.5,4.55-3.33,10-9.66,10-20.89C503.05,181.94,499.5,175.14,492.8,170.84Zm-11.18,29.89c-2.59,2.57-6.75,3.93-12.07,3.93h-1.94v-26c0.79-.06,1.78-0.11,3-0.11,5.06,0,9,1.3,11.45,3.76,2,2,3,4.91,3,8.54C485.09,195.1,483.92,198.43,481.62,200.72Z" transform="translate(-367.24 -15.99)"/>
      <path class="cls-2" d="M545.5,203a32.17,32.17,0,0,1-9.34,1.38c-9.39,0-14.78-4.63-14.78-12.71s5.5-12.92,14.7-12.92a27.48,27.48,0,0,1,9.39,1.58l2.49,0.9,3.86-13-2-.89c-2.47-1.11-7.53-2.29-14.3-2.29-19.11,0-31.94,11-31.94,27.25,0,15.67,12.07,25.8,30.74,25.8,7.17,0,12.47-1.19,14.83-2.21l1.9-.82-2.9-13Z" transform="translate(-367.24 -15.99)"/>
    </g>
    <g>
      <path class="cls-2" d="M548.13,107.25v29.33c0,9.6-4.41,9.6-6.07,9.6-1.47,0-5.93,0-5.93-9.6V107.25h-31l-6.48,21.7q-1,3.37-1.88,6.65c-0.63-2.42-1.28-4.7-1.9-6.83l-6.19-21.51H460.57l-4.21,21.15-0.24,1.38-0.16-.86-4.12-21.67H436.52l-4.35,21.08-0.56,2.77c-0.16-.87-0.31-1.73-0.47-2.58l-3.9-21.27H410.71L423,158.85h15.53l4.85-22,0.1-.42,0.06,0.33,4.34,22.07h15.4l11.18-43.32,13.88,43.32h15.93l16.3-48.41v25.31c0,19.72,11.51,23.86,21.17,23.86,14.14,0,21.93-8.43,21.93-23.73V107.25H548.13Z" transform="translate(-367.24 -15.99)"/>
      <path id="_8" data-name="8" class="cls-2" d="M560.91,153.61a3.15,3.15,0,1,0,3.15,3.15A3.15,3.15,0,0,0,560.91,153.61Zm0,5.78a2.64,2.64,0,1,1,2.64-2.64A2.64,2.64,0,0,1,560.91,159.39Zm0.87-2.25a1.54,1.54,0,0,0-.36-0.28,1,1,0,0,0,.65-0.3,0.88,0.88,0,0,0,.22-0.61,0.94,0.94,0,0,0-.14-0.52,0.75,0.75,0,0,0-.38-0.31A2.38,2.38,0,0,0,561,155h-1.4v3.29h0.66v-1.37h0.13a1.1,1.1,0,0,1,.33,0,0.51,0.51,0,0,1,.2.14,4.78,4.78,0,0,1,.35.48l0.48,0.72h0.79l-0.4-.64A3.71,3.71,0,0,0,561.78,157.13Zm-1-.72h-0.49v-0.83h1a0.41,0.41,0,0,1,.25.13,0.39,0.39,0,0,1,.09.27,0.43,0.43,0,0,1-.07.25,0.36,0.36,0,0,1-.19.14A2.56,2.56,0,0,1,560.76,156.41Z" transform="translate(-367.24 -15.99)"/>
    </g>
  </g>
</svg>
